<?xml version="1.0" encoding="UTF-8" standalone="no"?>
<!-- Created with Inkscape (http://www.inkscape.org/) -->

<svg
   version="1.1"
   id="svg1"
   width="500"
   height="500"
   viewBox="0 0 500 500"
   sodipodi:docname="placeholder-file.svg"
   inkscape:version="1.4-dev (1:1.2.0-alpha1+devel+202311250519+62aa04f6d0)"
   xmlns:inkscape="http://www.inkscape.org/namespaces/inkscape"
   xmlns:sodipodi="http://sodipodi.sourceforge.net/DTD/sodipodi-0.dtd"
   xmlns:xlink="http://www.w3.org/1999/xlink"
   xmlns="http://www.w3.org/2000/svg"
   xmlns:svg="http://www.w3.org/2000/svg">
  <sodipodi:namedview
     id="namedview1"
     pagecolor="#ffffff"
     bordercolor="#000000"
     borderopacity="0.25"
     inkscape:showpageshadow="2"
     inkscape:pageopacity="0.0"
     inkscape:pagecheckerboard="0"
     inkscape:deskcolor="#d1d1d1"
     inkscape:zoom="1.656"
     inkscape:cx="128.62319"
     inkscape:cy="231.88406"
     inkscape:window-width="1920"
     inkscape:window-height="1011"
     inkscape:window-x="0"
     inkscape:window-y="0"
     inkscape:window-maximized="1"
     inkscape:current-layer="svg1" />
  <defs
     id="defs1">
    <linearGradient
       id="linearGradient12">
      <stop
         style="stop-color:#9200c1;stop-opacity:1;"
         offset="0"
         id="stop12" />
      <stop
         style="stop-color:#c713ff;stop-opacity:0;"
         offset="1"
         id="stop13" />
    </linearGradient>
    <linearGradient
       xlink:href="#linearGradient12"
       id="linearGradient13"
       x1="329.94226"
       y1="337.46341"
       x2="398.46039"
       y2="416.12183"
       gradientUnits="userSpaceOnUse" />
  </defs>
  <path
     id="path4"
     style="fill:#b3b3b3;fill-opacity:1"
     d="M 346.59961 141.73242 L 240.88867 151.91992 C 213.59111 154.55084 193.79454 156.46422 178.72852 157.95312 L 176.1582 164.78906 C 191.50433 163.24374 211.00182 161.33183 241.70117 158.37305 L 345.53711 148.36523 L 347.85352 150.78906 C 350.1435 153.18593 350.23939 153.94853 356.53516 219.27148 C 360.03686 255.60395 362.5649 285.34593 362.15234 285.36523 C 361.73979 285.38451 356.10632 282.05957 349.63477 277.97656 C 343.16322 273.89355 336.67144 269.9029 335.20898 269.10742 C 333.74651 268.31194 326.871 264.13988 319.92969 259.83594 C 302.63457 249.11215 301.66783 248.66337 299.27344 250.25781 C 298.19741 250.97435 292.51196 256.71515 286.63867 263.01562 L 275.95898 274.4707 L 272.2207 272.17188 C 268.82073 270.08098 232.77375 244.98881 214.80469 232.20508 C 210.59926 229.21322 206.52266 227.07214 205.28125 227.20312 C 204.02632 227.33557 195.53045 234.53467 185.14258 244.26953 C 175.26044 253.53044 162.18778 265.64655 156.0918 271.19336 L 145.00781 281.2793 L 139.48438 226.77539 L 133.95898 172.27148 L 135.91211 170.32617 C 137.03369 169.20871 142.6139 168.26858 167.00586 165.73438 L 167.74219 159.0918 C 137.93169 162.12944 134.26921 162.92071 132.56641 164.44141 C 131.12998 165.72423 129.31926 168.38406 128.54297 170.35352 C 127.23118 173.68157 127.72069 180.06814 135.50195 260.81445 C 144.43406 353.50839 144.1553 351.60957 149.4707 355.49805 C 150.71732 356.41002 153.2446 357.36678 155.08789 357.625 C 156.9312 357.88322 205.0174 353.53421 261.94531 347.96094 C 285.07579 345.69644 302.01446 344.03122 316.00977 342.63281 L 319.65234 335.65234 C 310.89572 336.51745 301.73037 337.41726 289.23242 338.61719 L 215.51367 345.69336 L 219.14258 341.66602 C 225.7705 334.31087 238.94279 319.8518 254.12109 303.27148 C 271.18427 284.63218 275.12851 280.2982 282.2207 272.38672 C 290.76082 262.86005 300.90528 252.14133 301.4375 252.08203 C 301.71554 252.05093 308.68787 256.23549 316.93164 261.38086 C 325.1754 266.52623 338.99811 275.02521 347.64844 280.26953 L 363.375 289.80469 L 364.96094 309.07422 C 366.4207 326.82468 366.40461 328.47002 364.75 329.94141 C 363.70895 330.86717 356.47786 331.90799 332.61719 334.3457 L 328.9082 341.30469 C 361.74003 337.94368 366.34385 337.08854 368.05664 335.66992 C 373.61528 331.06597 373.78989 335.72976 364.40625 238.77148 C 357.84244 170.94922 355.46971 149.40388 354.38867 147.84766 C 353.60946 146.72594 351.53727 144.89031 349.78516 143.76953 L 346.59961 141.73242 z M 205.39648 230.19922 C 205.9488 230.13832 207.61353 230.99314 209.0957 232.09766 C 210.57788 233.20216 218.08783 238.45473 225.7832 243.76953 C 273.42623 276.67413 273.92688 277.0545 272.17383 279.02734 C 271.27948 280.03381 265.21439 286.51148 258.69727 293.42188 C 252.18016 300.33228 246.64986 306.26263 246.40625 306.60156 C 246.16264 306.9405 237.69782 316.02461 227.5957 326.78711 L 209.22656 346.35547 L 182.48438 348.93164 C 159.8904 351.10923 155.37408 351.30279 153.37891 350.17383 C 151.0237 348.84125 151.00937 348.74987 148.00977 317.62695 L 145.00195 286.41797 L 147.66211 283.81055 C 149.12567 282.37714 153.16832 278.5778 156.64453 275.36719 C 160.12073 272.15658 172.28486 260.7052 183.67773 249.91992 C 195.07059 239.13466 204.84419 230.26052 205.39648 230.19922 z " />
  <path
     d="m 296.86086,387.71417 c 0.14347,-0.28695 0.14347,-0.28695 0,-0.28695 -0.14348,0.14347 -0.28695,0.28695 -0.28695,0.43042 0,0.28694 0.14347,0.28694 0.28695,-0.14347 z m 0.43042,-0.43042 c 0,0.14347 0.28694,0 0.57389,-0.43042 0.28694,-0.28695 0.28694,-0.28695 -0.14348,0 -0.14347,0.14347 -0.43041,0.28694 -0.43041,0.43042 z m 3.58682,-1.57821 c -1.00431,-0.43042 -1.86515,-0.14347 -1.86515,0.71737 0,0.28694 -0.43042,0.86084 -1.00431,1.43473 -1.29126,1.00431 -0.86084,1.43473 0.57389,0.43042 0.5739,-0.57389 0.86084,-0.71737 0.71737,-0.28695 -0.14347,0.14347 -0.86084,0.71737 -1.43473,1.29126 -0.71737,0.43042 -1.14779,0.86084 -1.14779,1.00431 0,0.14347 -0.28694,0.28695 -0.57389,0.14347 -0.28694,0 -0.71736,0.14348 -1.00431,0.43042 -0.28695,0.28695 -0.86084,0.43042 -2.15209,0.43042 -1.43473,0 -1.86515,0.14347 -4.73461,1.5782 -4.59114,2.1521 -5.8824,2.72599 -8.32144,3.58683 -1.29125,0.43042 -2.58251,0.86084 -3.01293,1.14778 -1.29126,1.14779 -9.18227,2.1521 -9.89964,1.29126 -0.28694,-0.28695 -0.28694,-1.29126 -0.28694,-3.01293 0,-2.43904 0,-3.01294 0.71736,-5.16503 0.43042,-1.43473 1.14778,-3.29988 1.5782,-4.16072 0.71737,-1.5782 0.71737,-1.72167 1.43473,-1.5782 3.15641,0.57389 9.18228,0 11.76479,-1.14779 1.14778,-0.57389 1.86515,-0.71736 3.29988,-0.86083 0.57389,0 4.44766,-3.01294 6.31281,-4.73461 0.71737,-0.57389 1.14779,-1.29126 1.14779,-1.57821 0,-0.28694 0.86083,-1.72167 1.86514,-3.29987 1.00432,-1.43474 2.1521,-3.44336 2.43905,-4.16072 0.86083,-1.72168 1.14778,-3.7303 0.57389,-4.44767 -0.14348,-0.28694 -0.28695,-0.57389 -0.14348,-0.57389 0.14348,-0.14347 0,-0.14347 -0.28694,-0.14347 -0.28695,0 -0.71737,-0.28695 -1.00431,-0.57389 -0.28695,-0.28695 -0.28695,-0.43042 -0.14348,-0.28695 0.43042,0.28695 0.5739,-0.28694 0.14348,-0.71736 -0.28695,-0.28695 -0.43042,-0.5739 -0.43042,-0.5739 0,-0.14347 -0.28695,-0.57389 -0.86084,-1.00431 -0.71736,-0.57389 -1.00431,-0.71736 -2.58251,-0.71736 -0.86084,0 -1.72168,0 -2.00863,-0.14347 -0.14347,0 -0.28694,0 -0.43041,0 -0.5739,0.43041 -1.29126,0.28694 -1.57821,0 -0.28694,-0.43042 -1.5782,-0.71737 -1.5782,-0.28695 0,0.14347 -0.14347,0.14347 -0.28695,0.14347 -0.14347,0 -0.14347,0 0,-0.14347 0.28695,-0.43042 -0.71736,-0.57389 -1.5782,-0.28695 -2.15209,0.71737 -5.16503,2.29557 -8.03449,4.30419 -7.17365,4.73461 -14.49077,12.91257 -16.64287,18.65149 -3.1564,8.32144 -4.01724,12.33868 0.86084,19.79928 1.00431,1.5782 3.15641,3.58682 4.16072,4.01724 0.57389,0.14348 1.43473,0.28695 1.86515,0.14348 1.43473,-0.14348 2.86946,-0.14348 3.87377,0 0.71736,0.14347 1.72167,0 4.73461,-0.86084 2.00862,-0.71737 4.16072,-1.29126 4.44766,-1.43473 0.43042,-0.28695 1.14779,-0.43042 1.5782,-0.57389 1.57821,-0.28695 3.15641,-1.14779 6.59976,-3.58683 0.71737,-0.57389 1.43473,-1.00431 1.57821,-1.00431 0.14347,0 0.71736,-0.57389 1.29125,-1.14778 0.57389,-0.5739 2.00862,-1.72168 3.15641,-2.58252 1.00431,-0.71736 2.15209,-1.72167 2.58251,-2.00862 0.28695,-0.43042 1.00431,-1.00431 1.43473,-1.29126 1.57821,-1.00431 2.72599,-2.15209 3.15641,-3.44335 0.57389,-1.29126 0.28695,-2.15209 -0.86084,-2.72599 z m -5.16503,-21.37747 c 0.28695,0 0.43042,0 0.28695,0.14347 -0.14347,0.14347 -0.28695,0.28694 -0.43042,0.28694 0,0 -0.14347,-0.14347 -0.14347,-0.28694 0,-0.14347 0.14347,-0.14347 0.28694,-0.14347 z m -1.5782,4.30419 c 0.43042,-0.86084 0.86084,-1.57821 1.00431,-1.43473 0,0.14347 -0.14347,0.57389 -0.43042,1.14778 -0.57389,1.00431 -0.86084,1.29126 -0.57389,0.28695 z m -9.0388,-1.43473 c 0.43042,-0.28695 1.29126,-0.86084 2.00862,-1.29126 0.57389,-0.28695 1.14779,-0.71737 1.14779,-1.00431 0,-0.14348 0.28694,-0.28695 0.43042,-0.14348 0.28694,0 0.57389,-0.14347 0.71736,-0.43041 0.28695,-0.28695 0.71737,-0.5739 1.29126,-0.71737 0.43042,0 0.86084,-0.28695 1.00431,-0.28695 0.14347,-0.28694 1.29126,0 1.72167,0.28695 0.5739,0.57389 -0.28694,2.43904 -2.00862,5.02156 -3.1564,4.73461 -5.16503,6.8867 -8.4649,8.89532 -1.00432,0.57389 -2.00863,1.14779 -2.1521,1.29126 -0.57389,0.43042 -2.58251,1.00431 -4.59114,1.29126 -1.00431,0.14347 -2.15209,0.28694 -2.58251,0.28694 l -0.86084,0.14348 0.57389,-0.71737 c 0.28695,-0.43042 0.86084,-1.14778 1.14779,-1.72168 0.43042,-0.43041 0.71736,-1.00431 0.71736,-1.29125 0,-0.28695 0.43042,-0.71737 0.71737,-1.14779 0.43042,-0.43042 1.29125,-1.29125 1.72167,-1.86515 1.00432,-1.29125 4.59114,-4.44766 6.02587,-5.45197 0.43042,-0.28695 1.14778,-0.86084 1.43473,-1.14778 z m -1.86515,-6.02587 c 1.86515,-1.00431 2.29557,-0.86084 0.86084,0.14347 -1.72168,1.14779 -3.15641,2.29557 -3.01293,2.58252 0.14347,0.14347 0.14347,0.14347 0,0 -0.43042,-0.14348 -1.14779,0.28694 -0.86084,0.57389 0.14347,0.28694 0,0.28694 -0.43042,0.14347 -0.43042,-0.43042 1.5782,-2.43904 3.44335,-3.44335 z m -7.03018,6.31281 c 0.86084,-1.00431 3.58683,-2.86946 3.58683,-2.58251 0,0.14347 -0.43042,0.57389 -1.00431,0.86084 -0.57389,0.28694 -1.43473,1.00431 -2.00862,1.5782 -0.5739,0.57389 -1.00432,1.00431 -1.14779,1.00431 -0.14347,0 0.14347,-0.43042 0.57389,-0.86084 z m -2.15209,3.29988 c 0.43042,-0.28695 0.43042,-0.14347 -0.14347,0.43042 -0.43042,0.43042 -0.71737,0.71736 -0.71737,0.71736 -0.28695,0 0.43042,-0.86083 0.86084,-1.14778 z m -4.30419,2.43904 c 0.14347,0 0.14347,0 0.14347,0.28695 0,0.14347 0,0.28694 -0.14347,0.28694 -0.14347,0 -0.28695,0 -0.28695,-0.14347 0,-0.14347 0.14348,-0.28694 0.28695,-0.43042 z m -2.86946,6.59976 c 0.57389,-0.71736 0.57389,-1.29126 0,-0.57389 -2.58252,3.01293 -2.86946,3.29988 -1.00431,0.57389 1.72167,-2.43904 5.73892,-6.8867 6.16934,-6.8867 0,0 -0.43042,0.71736 -1.14779,1.43473 -2.15209,2.58251 -2.15209,2.58251 0.28695,0.28694 1.14778,-1.14778 2.86946,-2.72599 3.7303,-3.29988 0.86083,-0.57389 1.5782,-1.14778 1.5782,-1.29125 0.14347,-0.14348 0.71736,-0.5739 1.43473,-1.00432 0.71737,-0.43041 1.5782,-0.86083 1.86515,-1.14778 1.00431,-0.71736 -2.1521,2.1521 -3.58683,3.29988 -1.43473,1.00431 -4.73461,4.16072 -8.03448,7.60407 -0.86084,1.00431 -1.72168,1.72168 -1.72168,1.72168 0,0 0.14347,-0.43042 0.43042,-0.71737 z m 26.97292,12.48215 c 0.14348,-0.14347 0.43042,-0.14347 0.43042,-0.14347 0.14348,0.14347 0,0.28695 -0.28694,0.28695 -0.28695,0.14347 -0.28695,0.14347 -0.14348,-0.14348 z m 7.31713,-4.01724 c -0.28695,0.57389 -1.00431,1.29125 -5.3085,4.87808 -0.86084,0.71737 -1.86515,1.43473 -2.1521,1.5782 -1.00431,0.5739 1.72168,-2.29556 3.58683,-3.7303 1.00431,-0.71736 2.15209,-1.72167 2.58251,-2.15209 1.00431,-1.29126 1.29126,-1.5782 1.43473,-1.43473 0.14347,0 0,0.43042 -0.14347,0.86084 z m 4.16058,-11.47784 c 0,0.28694 0.28695,0.14347 0.5739,-0.43042 0.14347,-0.43042 0.14347,-0.43042 -0.14348,-0.14347 -0.28694,0.14347 -0.43042,0.43041 -0.43042,0.57389 z m -5.45197,14.06035 c -0.14347,0 -0.28695,0.28695 -0.28695,0.43042 0,0.43042 0,0.43042 0.28695,0.14347 0.28695,-0.57389 0.28695,-0.86083 0,-0.57389 z m 29.41197,-22.23831 c 0,0.14347 0.14347,0.14347 0.28694,0.14347 0.14348,-0.14347 0.28695,-0.28695 0.28695,-0.43042 0,-0.14347 -0.14347,-0.14347 -0.28695,-0.14347 -0.14347,0.14347 -0.28694,0.28694 -0.28694,0.43042 z m -0.71737,0.57389 c 0,0.14347 0.14347,0.28694 0.28695,0.28694 0.14347,-0.14347 0.28694,-0.28694 0.28694,-0.43042 0,-0.14347 -0.14347,-0.28694 -0.28694,-0.28694 -0.14348,0 -0.28695,0.28694 -0.28695,0.43042 z m 25.25125,24.9643 c -0.14347,-0.43042 -0.28695,-0.57389 -1.00431,-0.57389 -0.71737,0.14347 -1.43473,0.71736 -5.88239,5.16503 -4.87809,4.87808 -5.16503,5.16503 -7.31713,6.16934 -2.43904,1.14778 -4.16071,1.72167 -4.87808,1.5782 -0.57389,-0.28695 -2.58251,-3.15641 -3.87377,-5.73892 -1.86515,-3.7303 -4.59114,-12.62563 -5.45197,-18.22107 -0.28695,-1.14779 -0.71737,-2.58252 -1.00432,-3.29988 l -0.57389,-1.29126 1.57821,-1.5782 c 4.7346,-4.44767 12.76909,-9.75617 14.3473,-9.32575 0.71736,0.14348 0.86083,-0.14347 0.28694,-0.57389 -0.14347,-0.28695 0,-0.28695 0.28695,0 0.71736,0.57389 0.86084,0.57389 0.71736,-0.14347 -0.28694,-0.43042 -0.14347,-0.43042 0.14348,-0.14348 0.28694,0.28695 0.57389,0.28695 0.71736,0 0.14347,-0.14347 0.14347,-0.28694 -0.14347,-0.43041 -0.28695,0 -0.86084,-0.5739 -1.57821,-1.29126 -0.57389,-0.57389 -0.86083,-0.86084 -0.71736,-0.57389 0.43042,0.57389 0.57389,0.86083 0.28695,0.86083 -0.14348,0 -0.43042,-0.43041 -0.71737,-0.86083 -0.43042,-0.71737 -0.71736,-0.86084 -1.00431,-0.71737 -0.28695,0.14347 -0.57389,0 -0.57389,0 0,-0.14347 -0.28695,-0.43042 -0.71737,-0.57389 -1.29125,-0.57389 -1.43473,0 -0.57389,2.58251 0.14347,0.28695 -0.28695,0.5739 -1.29126,1.00431 -2.29556,1.14779 -6.8867,3.87378 -7.46059,4.59114 -0.28695,0.28695 -2.58252,2.1521 -2.72599,2.1521 -0.14347,0 -0.14347,-0.14348 0,-0.43042 0,-0.28695 0,-0.28695 -0.14347,-0.28695 -0.28695,0.14347 -0.43042,0.43042 -0.43042,0.71737 0,0.28694 -0.28695,0.86083 -1.00431,1.29125 -0.5739,0.5739 -1.00431,0.71737 -1.00431,0.5739 0,-0.14348 0.14347,-0.14348 0.28694,-0.14348 0.14347,0 0.28695,-0.28694 0.43042,-0.57389 0.28695,-0.43042 0.28695,-0.43042 -0.14347,-0.28695 -1.43473,0.71737 -1.00431,0 1.00431,-2.00862 1.29126,-1.29126 2.72599,-2.72599 3.29988,-3.44335 0.71736,-0.86084 1.14778,-1.14778 1.72167,-1.29126 0.43042,-0.14347 1.00432,-0.28694 1.00432,-0.43042 0.14347,-0.28694 0.43041,-0.43042 0.71736,-0.57389 0.28695,0 0,0.28695 -0.43042,0.71737 -0.57389,0.43042 -1.14778,0.86083 -1.14778,0.86083 -0.14348,0 -0.28695,0.14348 -0.28695,0.28695 0,0.28695 3.58683,-2.00862 3.58683,-2.43904 0.14347,-0.14347 0.28694,-0.28695 0.57389,-0.28695 0.43042,0 2.00862,-1.43473 1.86515,-1.5782 -0.14348,-0.14347 -0.28695,0 -0.57389,0.14347 -0.14348,0.14348 -0.28695,0.28695 -0.28695,0.14348 0,-0.14348 -0.28695,0 -0.71737,0.14347 -0.28694,0.28695 -0.71736,0.43042 -0.86083,0.43042 -0.28695,0 -0.86084,0.28694 -1.29126,0.57389 -0.57389,0.28695 -1.14778,0.71737 -1.5782,0.86084 -0.43042,0.14347 -2.00863,1.43473 -3.58683,2.72599 -0.28694,0.28694 -0.86084,0.71736 -1.43473,1.00431 -0.86084,0.57389 -2.00862,1.5782 -3.44335,3.01293 -1.00431,0.86084 -1.86515,1.43473 -3.01293,1.5782 -1.43473,0.14348 -3.29988,1.00431 -3.44336,1.57821 0,0.14347 0,0.71736 0,1.29125 0,0.86084 0,1.00431 -3.01293,4.16072 -1.72168,1.72168 -3.44335,3.7303 -4.16072,4.44766 -0.57389,0.71737 -1.00431,1.29126 -1.00431,1.29126 -0.14347,-0.14347 1.29126,-3.7303 3.15641,-7.89101 1.00431,-2.29557 2.72599,-5.8824 3.7303,-8.17797 3.1564,-7.03017 18.79496,-37.7334 21.52095,-42.46801 0.86084,-1.29125 1.86515,-3.44335 2.58251,-4.73461 1.43473,-3.29987 1.5782,-4.30419 0.28695,-6.8867 -0.86084,-1.72168 -1.00431,-1.86515 -1.86515,-2.00862 -0.71737,-0.14347 -1.00431,-0.28695 -1.14779,-0.57389 0,-0.14348 -0.43041,-0.71737 -1.00431,-1.14779 -0.71736,-0.57389 -1.00431,-0.71736 -1.86515,-0.57389 -1.29125,0.14347 -1.43473,0.43042 -1.5782,2.00862 -0.14347,1.72168 -0.57389,2.58252 -3.7303,9.32575 -1.43473,3.01293 -3.01293,6.45628 -3.58682,7.89101 -0.57389,1.29126 -3.29988,7.03018 -6.16934,12.7691 -2.86946,5.73892 -5.88239,11.76479 -6.74323,13.48646 -0.71737,1.72168 -2.43904,5.16503 -3.58683,7.74755 -1.29125,2.72598 -3.1564,6.74323 -4.16072,9.0388 -0.86083,2.15209 -2.00862,4.44766 -2.15209,4.87808 -0.28695,0.43042 -0.57389,1.00431 -0.57389,1.14778 0,0.57389 -1.57821,4.44766 -2.86946,7.17365 -0.71737,1.29126 -1.29126,2.72599 -1.29126,3.15641 0.14347,0.86084 -3.29988,9.89964 -4.01724,11.04742 -0.43042,0.43042 -1.00431,1.72168 -1.43473,2.86946 -0.43042,1.14778 -1.00431,2.43904 -1.29126,3.01293 -0.57389,0.71737 -0.57389,1.00431 -0.57389,1.86515 0.28694,2.1521 0.71736,3.44335 1.00431,3.7303 0.28694,0.14347 0.43042,0.43042 0.43042,0.57389 0,0.28695 1.00431,1.14779 1.86515,1.57821 0.43042,0.14347 1.00431,0.28694 1.29125,0.14347 0.43042,0 1.43473,-0.14347 2.1521,-0.14347 1.29126,-0.14348 1.5782,-0.28695 2.29557,-1.14779 0.43042,-0.57389 1.00431,-1.00431 1.29125,-1.00431 0.43042,-0.14347 0.71737,-0.86084 2.00863,-3.29988 1.29125,-2.43904 3.87377,-6.45628 6.74323,-10.617 1.43473,-2.00862 3.87377,-5.59545 5.59544,-8.03449 3.58683,-5.3085 4.01725,-5.73892 4.30419,-5.45197 0.14348,0.14347 0.43042,0.86083 0.71737,1.72167 1.14778,4.73461 3.7303,11.62132 5.45197,14.63425 1.57821,3.1564 2.86946,4.59113 6.31282,7.60407 2.00862,1.72167 2.72598,2.00862 4.87808,2.00862 0.86084,0 2.00862,0.14347 2.43904,0.28695 0.71736,0.14347 1.14778,0.14347 1.86515,-0.28695 0.57389,-0.28695 1.00431,-0.43042 1.14778,-0.43042 0.14348,0 0.43042,-0.14347 0.57389,-0.28695 0.14348,-0.28694 0.5739,-0.43041 0.86084,-0.43041 0.86084,0 2.86946,-1.86515 6.31282,-6.02587 0.71736,-0.86084 1.72167,-1.86515 2.15209,-2.43904 0.43042,-0.43042 0.71737,-0.86084 0.71737,-1.00431 0,0 0.28694,-0.43042 0.57389,-0.86084 0.86084,-1.00431 2.58251,-4.01724 2.86946,-5.16503 0.14347,-0.43042 0.14347,-1.14778 0.14347,-1.43473 z m -15.63856,-28.26418 c 0.14348,0 0.28695,0.14347 0.43042,0.28694 0.14347,0.14348 0,0.28695 -0.14347,0.28695 -0.14347,0 -0.28695,-0.14347 -0.28695,-0.28695 -0.14347,-0.14347 -0.14347,-0.28694 0,-0.28694 z m -21.09053,-11.47784 c -0.14347,0 -0.28695,-0.14347 -0.28695,-0.28695 0,-0.14347 0.14348,-0.14347 0.28695,-0.14347 0.14347,0.14347 0.28695,0.28695 0.28695,0.28695 0,0.14347 -0.14348,0.14347 -0.28695,0.14347 z m 1.14778,-2.43904 c -0.28694,0.43042 -0.43041,0.43042 -0.43041,0.28694 0,-0.43042 0.43041,-1.14778 0.57389,-1.00431 0.14347,0.14347 0,0.43042 -0.14348,0.71737 z m -10.76047,13.91688 c 0.14347,0 0.28695,0.14347 0.14347,0.28694 -0.14347,0.14348 -0.14347,0.28695 -0.28694,0.28695 0,0 -0.14348,-0.14347 -0.14348,-0.28695 0,-0.14347 0.14348,-0.28694 0.28695,-0.28694 z m -4.59114,10.04311 c 0,-0.28695 0.14348,-0.43042 0.14348,-0.43042 0.14347,0 0.14347,0.14347 0.14347,0.43042 0,0.14347 -0.14347,0.28695 -0.28695,0.28695 -0.14347,0 -0.14347,-0.14348 0,-0.28695 z m -1.72167,3.58682 c 0,-0.14347 0.14347,-0.28694 0.28694,-0.28694 0,0.14347 0,0.28694 -0.14347,0.43042 -0.28695,0.28694 -0.28695,0.28694 -0.14347,-0.14348 z m -0.14348,3.29988 c 0.5739,-1.29125 0.86084,-1.72167 1.29126,-1.86515 0.43042,-0.14347 0.86084,-0.28694 1.00431,-0.43041 0.57389,-0.28695 0.43042,0.28694 -0.28694,1.29125 -0.28695,0.57389 -0.5739,1.43473 -0.86084,2.00862 -0.28695,0.86084 -0.43042,1.14779 -0.71737,0.86084 -0.28694,-0.14347 -0.28694,-0.57389 0,-0.43042 0.14348,0.14348 0.28695,-0.14347 0.43042,-0.43042 0.43042,-0.71736 0.43042,-0.71736 0,-0.71736 -0.28694,0 -0.57389,0.28695 -0.86084,0.71736 -0.86083,1.29126 -0.86083,0.86084 0,-1.00431 z m -1.14778,2.86946 c 0.28695,-0.28694 0.43042,-0.28694 0.43042,0 0,0.14348 -0.14347,0.43042 -0.43042,0.71737 -0.28695,0.14347 -0.28695,0.14347 -0.28695,-0.14347 0,-0.14348 0.14348,-0.43042 0.28695,-0.5739 z m -2.29557,4.01725 c 0,0.14347 -0.14347,0.57389 -0.43042,1.29125 -0.28694,0.5739 -0.43042,0.86084 -0.43042,0.71737 0,-0.43042 0.71737,-2.00862 0.86084,-2.00862 z m -1.43473,3.58682 c 0,-0.28694 0.28695,-0.71736 0.28695,-1.00431 0.14347,-0.14347 0.28694,-0.14347 0.14347,0.28695 -0.14347,0.28694 -0.28695,0.71736 -0.43042,1.00431 -0.14347,0.28695 -0.14347,0.14347 0,-0.28695 z m -0.57389,1.43473 0.43042,-0.57389 -0.14347,0.57389 c -0.14348,0.28695 -0.28695,0.71737 -0.43042,1.00431 -0.14348,0.28695 -0.14348,0.28695 -0.14348,0 0,-0.28694 0.14348,-0.71736 0.28695,-1.00431 z m -0.86084,2.29557 c 0.14347,0 0.14347,0.14347 0.14347,0.43042 -0.14347,0.43042 -0.28694,0.57389 -0.28694,0.14347 0,-0.28694 0,-0.43042 0.14347,-0.57389 z m -0.57389,1.72168 c 0.28695,-0.43042 0.43042,-0.43042 0.14347,0.28694 -0.28694,0.86084 -0.43042,1.00431 -0.43042,0.43042 0,-0.14347 0.14348,-0.57389 0.28695,-0.71736 z m -0.86084,2.15209 c 0.14347,-0.14347 0.28695,0 0.28695,0.14348 0,0 -0.14348,0.28694 -0.28695,0.28694 -0.14347,0.14347 -0.14347,0 -0.14347,0 0,-0.14347 0,-0.43042 0.14347,-0.43042 z m 11.1909,-17.5037 c -0.14348,0.43041 -0.43042,1.14778 -0.43042,1.5782 -0.14348,0.57389 -0.5739,1.72167 -1.00431,2.72599 -0.43042,0.86083 -0.86084,1.86514 -1.00432,2.29556 0,0.28695 -0.14347,0.71737 -0.28694,0.86084 -0.14347,0.14347 -0.57389,1.14779 -0.86084,2.29557 -0.71736,2.00862 -2.00862,5.02156 -2.72599,5.73892 -0.28694,0.28695 -0.57389,0.86084 -0.86083,1.29126 -0.28695,0.71736 -1.29126,1.72167 -1.29126,1.43473 0,-0.14348 0.14347,-0.43042 0.28694,-0.86084 0.43042,-0.86084 1.00432,-2.43904 0.86084,-2.58251 -0.14347,0 -0.57389,1.14778 -1.14778,2.58251 -0.86084,2.43904 -2.72599,5.88239 -3.87377,7.74754 -0.43042,0.57389 -1.00431,0.86084 -1.00431,0.43042 0,-0.14347 3.73029,-10.18658 6.16934,-16.64287 0.86083,-2.29557 1.72167,-4.30419 1.72167,-4.59113 0.14347,-0.28695 0.28695,-0.43042 0.43042,-0.28695 0.28695,0 0.43042,0 0.43042,-0.14347 0,-0.14348 0.14347,-0.14348 0.28695,0 0.14347,0 0.43041,-0.28695 0.57389,-0.5739 0.28694,-0.43041 0.43042,-0.57389 0.71736,-0.28694 0.14348,0.14347 0.28695,0 0.43042,-0.43042 0,-0.28695 0.43042,-0.71737 0.71737,-1.00431 0.43042,-0.28695 0.86083,-1.00431 1.14778,-1.72168 0.28695,-0.57389 0.71737,-1.5782 1.00431,-2.00862 0.57389,-1.00431 0.57389,-1.5782 0,-0.86084 -0.28694,0.43042 -0.43042,0.43042 -0.43042,0.14348 0,-0.28695 0.14348,-0.86084 0.43042,-1.29126 0.43042,-1.00431 0.43042,-1.29126 0.14348,-0.86084 -0.28695,0.43042 -0.71737,0.14347 -0.71737,-0.28695 0,-0.14347 -0.14347,-0.43041 -0.43042,-0.43041 -0.28695,-0.14348 -0.28695,0 -0.28695,0.43041 0,0.28695 -0.14347,0.71737 -0.43041,0.86084 -0.43042,0.28695 -0.43042,0.28695 0.28694,-1.5782 1.29126,-3.58683 5.73892,-13.19952 11.04742,-23.67305 3.44336,-7.17365 4.59114,-9.32574 4.59114,-8.4649 0,0.28694 -0.14347,1.00431 -0.43042,1.5782 -0.28695,0.43042 -0.43042,1.00431 -0.43042,1.00431 0.14347,0.14347 0.71737,-0.86084 1.29126,-2.00862 1.00431,-2.1521 2.00862,-3.44335 1.72167,-2.1521 -0.14347,0.28695 -0.71736,1.57821 -1.43473,2.86946 -0.57389,1.29126 -1.14778,2.43904 -1.14778,2.58252 0,0.28694 -1.14778,2.72598 -2.58251,5.45197 -2.86946,6.02587 -3.01294,6.16934 -2.72599,6.02587 0.14347,-0.14348 1.00431,-1.57821 1.72168,-3.15641 0.86083,-1.72167 1.5782,-2.86946 1.5782,-2.72599 0.14347,0.28695 -0.43042,1.57821 -0.57389,1.57821 -0.14348,0 -0.28695,0.43042 -0.43042,0.71736 0,0.43042 -0.43042,1.57821 -0.86084,2.58252 -0.43042,0.86083 -0.86084,2.00862 -1.00431,2.43904 0,0.43042 -0.43042,1.14778 -0.71737,1.72167 -0.28694,0.43042 -0.57389,1.14779 -0.71736,1.43473 -0.14347,0.28695 -0.43042,0.86084 -0.71737,1.14779 -0.43042,0.43042 -0.57389,0.86084 -0.14347,1.29125 0.28695,0.28695 0.28695,0.28695 -0.14347,0.14348 -0.57389,-0.14348 -1.00431,0.86084 -0.57389,1.5782 0.14347,0.57389 0.14347,0.71737 -0.28695,1.14778 -0.28695,0.28695 -0.57389,0.71737 -0.71737,1.00432 -0.14347,0.28694 -0.43041,0.86083 -0.71736,1.29125 -0.43042,0.43042 -0.43042,0.71737 -0.28695,0.71737 0.28695,0.14347 0.28695,0.28694 0,0.43042 -0.14347,0.28694 -0.14347,0.43042 -0.14347,0.43042 0.28695,0 -0.86084,2.00862 -1.14778,2.00862 -0.14348,0.14347 -0.28695,0.28694 -0.14348,0.57389 0,0.14347 -0.43042,1.29126 -0.86083,2.43904 -0.5739,1.14779 -1.14779,2.43904 -1.29126,2.72599 -0.28695,0.43042 -0.43042,1.00431 -0.57389,1.29126 z m 0.28694,-6.31282 c -0.43042,-0.43042 -0.71736,-0.28694 -0.57389,0.14348 0.14347,0.14347 0.43042,0.28694 0.57389,0.28694 0.43042,0 0.43042,-0.14347 0,-0.43042 z m -5.59545,15.78203 c -0.14347,0.14348 -0.28694,0.5739 -0.43041,0.86084 l -0.14348,0.71737 0.43042,-0.71737 c 0.14347,-0.28694 0.28695,-0.71736 0.28695,-0.86084 0,-0.28694 0,-0.28694 -0.14348,0 z m 11.04743,-25.68166 0.14347,-0.71737 -0.28695,0.71737 c -0.28694,0.28694 -0.43042,0.71736 -0.43042,0.71736 0,0.43042 0.43042,-0.14347 0.5739,-0.71736 z m 0.71736,-1.29126 c 0.14347,-0.28695 0.14347,-0.43042 0.14347,-0.43042 -0.14347,0 -0.28694,0.14347 -0.43041,0.43042 -0.14348,0.28694 -0.28695,0.57389 -0.14348,0.57389 0,0 0.28695,-0.28695 0.43042,-0.57389 z m 1.29126,-3.15641 c 0.14347,0 0.86084,-1.29125 0.86084,-1.72167 0,-0.14348 -0.28695,0.14347 -0.5739,0.71736 -0.28694,0.43042 -0.43041,0.86084 -0.43041,1.00431 z m -15.06467,35.00742 c 0,0.43042 0.43042,-0.14348 0.57389,-0.86084 l 0.14348,-0.57389 -0.28695,0.57389 c -0.28694,0.43042 -0.43042,0.71736 -0.43042,0.86084 z m 1.29126,-3.01294 c -0.14347,0.28695 -0.28695,0.43042 -0.28695,0.5739 0,0.14347 0.14348,0.14347 0.28695,0 0,-0.28695 0.14347,-0.5739 0.14347,-0.71737 0,-0.14347 -0.14347,0 -0.14347,0.14347 z M 400.5918,304.49982 c 0,-0.43042 -0.14348,-0.71736 -0.14348,-0.86084 0,-0.43042 -2.86946,-3.29988 -3.7303,-3.87377 -1.43473,-0.71736 -2.58251,-0.86084 -2.86946,-0.14347 -0.14347,0.28695 -0.14347,0.57389 0,0.71736 0.14348,0.28695 -0.28694,1.29126 -2.58251,4.87809 -3.15641,5.02155 -3.87377,6.16934 -5.59545,9.32574 -0.86083,1.57821 -1.72167,3.15641 -1.86515,3.29988 -0.14347,0.28695 -1.43473,2.43904 -2.72598,5.02156 -1.29126,2.43904 -3.15641,6.02586 -4.30419,8.03448 -1.00431,1.86515 -3.01294,5.30851 -4.30419,7.60407 -1.14779,2.29557 -3.44336,6.45629 -5.02156,9.18228 -2.86946,5.02155 -10.90395,20.94706 -13.05604,26.11208 -0.71737,1.57821 -1.43473,3.01294 -1.57821,3.01294 -0.57389,0.86084 -3.87377,10.76047 -5.02155,15.06466 -0.43042,1.29126 -1.00431,3.7303 -1.29126,5.16503 -0.28694,1.5782 -0.71736,3.29988 -0.86084,3.87377 -0.71736,3.01294 0.5739,8.60838 2.58252,11.62132 1.86515,2.72598 3.1564,3.44335 6.45628,3.29988 1.29126,0 2.29557,0 2.43904,0.14347 0.14348,0.14347 0.43042,0.14347 0.71737,0.14347 0.28695,0 0.28695,-0.14347 0.28695,-0.28694 -0.14348,-0.43042 0.14347,-0.5739 0.43041,-0.14348 0.43042,0.71737 3.58683,-0.71736 5.30851,-2.43904 0.71736,-0.57389 2.00862,-1.86515 3.01293,-2.72599 2.00862,-1.86515 4.30419,-4.30419 9.18227,-10.33005 3.7303,-4.59114 5.02156,-6.59976 6.02587,-10.04311 0.57389,-2.00863 1.29126,-5.45198 1.14778,-5.8824 -0.14347,-0.57389 -1.43473,-1.00431 -2.00862,-0.86083 -0.57389,0.28694 -3.15641,2.86946 -3.15641,3.1564 0,0.43042 0.28695,0.28695 1.43473,-0.86084 1.14779,-1.14778 1.29126,-1.14778 1.29126,-0.71736 0,0.43042 -4.16072,5.59545 -4.30419,5.3085 0,0 0.28695,-0.71737 0.57389,-1.43473 0.86084,-1.29126 1.00431,-1.5782 0.57389,-1.5782 -0.14347,0 -0.57389,0.57389 -0.86083,1.14778 -1.43473,2.00862 -1.86515,2.72599 -2.1521,2.72599 -0.14347,0 -0.57389,0.28694 -0.71736,0.71736 -0.28695,0.43042 -0.43042,0.86084 -0.5739,1.00431 -0.14347,0 -0.86083,0.86084 -1.5782,1.86515 -3.7303,4.73461 -8.89532,10.18659 -11.76479,12.33868 -1.72167,1.43473 -6.16933,3.15641 -6.45628,2.72599 -0.28695,-0.57389 0.28695,-7.17365 0.86084,-9.18227 1.29125,-5.59545 3.44335,-11.76479 6.8867,-20.2297 2.29557,-5.45197 10.617,-22.23831 14.20383,-28.83807 1.29126,-2.43904 3.7303,-6.88671 5.3085,-9.75617 5.3085,-9.46922 12.91257,-22.8122 13.62994,-23.81652 0.28694,-0.28694 1.29125,-1.86514 2.29556,-3.58682 1.00432,-1.72168 2.43905,-3.87377 3.15641,-4.73461 1.14778,-1.86515 1.14778,-1.72168 0.71737,-5.16503 z m -19.22539,81.77962 c 0.14348,0.14347 0.14348,0.43041 0,0.57389 0,0.14347 -0.14347,0.14347 -0.14347,-0.28695 0,-0.28694 0.14347,-0.43042 0.14347,-0.28694 z m -28.26418,22.8122 c -0.14347,0 -0.43042,-0.71736 -0.43042,-1.14778 0,-0.43042 0.43042,0 0.57389,0.57389 0,0.14347 0,0.43042 -0.14347,0.57389 z M 378.7839,334.9161 c -1.00431,1.86515 -1.5782,2.86946 -1.29126,2.86946 0.14347,0 0.28695,-0.28695 0.57389,-0.71737 0.14348,-0.28694 0.43042,-0.71736 0.5739,-0.71736 0.14347,0 0.14347,0.14347 0,0.28695 -0.28695,0.43041 -1.00432,1.72167 -3.15641,5.73892 -5.59545,11.04742 -8.32143,15.9255 -9.0388,16.06897 -0.28695,0 -1.00431,0.57389 -1.43473,1.29126 -1.00431,1.14778 -1.5782,1.5782 -1.5782,1.14778 0,-0.28694 2.86946,-5.73892 4.87808,-9.18227 2.15209,-3.7303 3.58682,-6.31281 4.59114,-8.03449 3.1564,-5.88239 4.30419,-7.89101 5.73892,-10.18658 0.86083,-1.43473 1.5782,-2.58252 1.5782,-2.86946 0,-0.14347 0.14347,-0.28695 0.43042,-0.43042 0.14347,0 0.43042,-0.57389 0.71736,-1.00431 0.28695,-0.43042 0.43042,-0.71737 0.5739,-0.57389 0,0.28694 -1.14779,2.72598 -3.15641,6.31281 z m 38.16385,52.79807 c 0.14347,-0.28695 0.14347,-0.28695 0,-0.28695 -0.14347,0.14347 -0.28695,0.28695 -0.28695,0.43042 0,0.28694 0.14348,0.28694 0.28695,-0.14347 z m 0.43042,-0.43042 c 0,0.14347 0.28694,0 0.57389,-0.43042 0.28695,-0.28695 0.28695,-0.28695 -0.14347,0 -0.14348,0.14347 -0.43042,0.28694 -0.43042,0.43042 z m 3.58682,-1.57821 c -1.00431,-0.43042 -1.86515,-0.14347 -1.86515,0.71737 0,0.28694 -0.43042,0.86084 -1.00431,1.43473 -1.29125,1.00431 -0.86084,1.43473 0.57389,0.43042 0.5739,-0.57389 0.86084,-0.71737 0.71737,-0.28695 -0.14347,0.14347 -0.86084,0.71737 -1.43473,1.29126 -0.71737,0.43042 -1.14778,0.86084 -1.14778,1.00431 0,0.14347 -0.28695,0.28695 -0.5739,0.14347 -0.28694,0 -0.71736,0.14348 -1.00431,0.43042 -0.28694,0.28695 -0.86084,0.43042 -2.15209,0.43042 -1.43473,0 -1.86515,0.14347 -4.73461,1.5782 -4.59114,2.1521 -5.8824,2.72599 -8.32144,3.58683 -1.29125,0.43042 -2.58251,0.86084 -3.01293,1.14778 -1.29126,1.14779 -9.18227,2.1521 -9.89964,1.29126 -0.28694,-0.28695 -0.28694,-1.29126 -0.28694,-3.01293 0,-2.43904 0,-3.01294 0.71736,-5.16503 0.43042,-1.43473 1.14779,-3.29988 1.5782,-4.16072 0.71737,-1.5782 0.71737,-1.72167 1.43473,-1.5782 3.15641,0.57389 9.18228,0 11.76479,-1.14779 1.14779,-0.57389 1.86515,-0.71736 3.29988,-0.86083 0.57389,0 4.44766,-3.01294 6.31281,-4.73461 0.71737,-0.57389 1.14779,-1.29126 1.14779,-1.57821 0,-0.28694 0.86083,-1.72167 1.86515,-3.29987 1.00431,-1.43474 2.15209,-3.44336 2.43904,-4.16072 0.86084,-1.72168 1.14778,-3.7303 0.57389,-4.44767 -0.14347,-0.28694 -0.28695,-0.57389 -0.14347,-0.57389 0.14347,-0.14347 0,-0.14347 -0.28695,-0.14347 -0.28695,0 -0.71736,-0.28695 -1.00431,-0.57389 -0.28695,-0.28695 -0.28695,-0.43042 -0.14347,-0.28695 0.43042,0.28695 0.57389,-0.28694 0.14347,-0.71736 -0.28695,-0.28695 -0.43042,-0.5739 -0.43042,-0.5739 0,-0.14347 -0.28695,-0.57389 -0.86084,-1.00431 -0.71736,-0.57389 -1.00431,-0.71736 -2.58251,-0.71736 -0.86084,0 -1.72168,0 -2.00862,-0.14347 -0.14348,0 -0.28695,0 -0.43042,0 -0.5739,0.43041 -1.29126,0.28694 -1.57821,0 -0.28694,-0.43042 -1.5782,-0.71737 -1.5782,-0.28695 0,0.14347 -0.14347,0.14347 -0.28695,0.14347 -0.14347,0 -0.14347,0 0,-0.14347 0.28695,-0.43042 -0.71736,-0.57389 -1.5782,-0.28695 -2.15209,0.71737 -5.16503,2.29557 -8.03449,4.30419 -7.17365,4.73461 -14.49077,12.91257 -16.64287,18.65149 -3.1564,8.32144 -4.01724,12.33868 0.86084,19.79928 1.00431,1.5782 3.15641,3.58682 4.16072,4.01724 0.57389,0.14348 1.43473,0.28695 1.86515,0.14348 1.43473,-0.14348 2.86946,-0.14348 3.87377,0 0.71736,0.14347 1.72168,0 4.73461,-0.86084 2.00862,-0.71737 4.16072,-1.29126 4.44766,-1.43473 0.43042,-0.28695 1.14779,-0.43042 1.57821,-0.57389 1.5782,-0.28695 3.1564,-1.14779 6.59975,-3.58683 0.71737,-0.57389 1.43473,-1.00431 1.57821,-1.00431 0.14347,0 0.71736,-0.57389 1.29125,-1.14778 0.5739,-0.5739 2.00863,-1.72168 3.15641,-2.58252 1.00431,-0.71736 2.1521,-1.72167 2.58251,-2.00862 0.28695,-0.43042 1.00432,-1.00431 1.43473,-1.29126 1.57821,-1.00431 2.72599,-2.15209 3.15641,-3.44335 0.57389,-1.29126 0.28695,-2.15209 -0.86084,-2.72599 z m -5.16503,-21.37747 c 0.28695,0 0.43042,0 0.28695,0.14347 -0.14347,0.14347 -0.28695,0.28694 -0.43042,0.28694 0,0 -0.14347,-0.14347 -0.14347,-0.28694 0,-0.14347 0.14347,-0.14347 0.28694,-0.14347 z m -1.5782,4.30419 c 0.43042,-0.86084 0.86084,-1.57821 1.00431,-1.43473 0,0.14347 -0.14347,0.57389 -0.43042,1.14778 -0.57389,1.00431 -0.86084,1.29126 -0.57389,0.28695 z m -9.0388,-1.43473 c 0.43042,-0.28695 1.29126,-0.86084 2.00862,-1.29126 0.5739,-0.28695 1.14779,-0.71737 1.14779,-1.00431 0,-0.14348 0.28694,-0.28695 0.43042,-0.14348 0.28694,0 0.57389,-0.14347 0.71736,-0.43041 0.28695,-0.28695 0.71737,-0.5739 1.29126,-0.71737 0.43042,0 0.86084,-0.28695 1.00431,-0.28695 0.14347,-0.28694 1.29126,0 1.72168,0.28695 0.57389,0.57389 -0.28695,2.43904 -2.00863,5.02156 -3.1564,4.73461 -5.16502,6.8867 -8.4649,8.89532 -1.00431,0.57389 -2.00863,1.14779 -2.1521,1.29126 -0.57389,0.43042 -2.58251,1.00431 -4.59113,1.29126 -1.00432,0.14347 -2.1521,0.28694 -2.58252,0.28694 l -0.86084,0.14348 0.57389,-0.71737 c 0.28695,-0.43042 0.86084,-1.14778 1.14779,-1.72168 0.43042,-0.43041 0.71736,-1.00431 0.71736,-1.29125 0,-0.28695 0.43042,-0.71737 0.71737,-1.14779 0.43042,-0.43042 1.29126,-1.29125 1.72168,-1.86515 1.00431,-1.29125 4.59113,-4.44766 6.02586,-5.45197 0.43042,-0.28695 1.14779,-0.86084 1.43473,-1.14778 z m -1.86515,-6.02587 c 1.86515,-1.00431 2.29557,-0.86084 0.86084,0.14347 -1.72168,1.14779 -3.15641,2.29557 -3.01293,2.58252 0.14347,0.14347 0.14347,0.14347 0,0 -0.43042,-0.14348 -1.14779,0.28694 -0.86084,0.57389 0.14347,0.28694 0,0.28694 -0.43042,0.14347 -0.43042,-0.43042 1.5782,-2.43904 3.44335,-3.44335 z m -7.03017,6.31281 c 0.86083,-1.00431 3.58682,-2.86946 3.58682,-2.58251 0,0.14347 -0.43042,0.57389 -1.00431,0.86084 -0.57389,0.28694 -1.43473,1.00431 -2.00862,1.5782 -0.57389,0.57389 -1.00431,1.00431 -1.14779,1.00431 -0.14347,0 0.14348,-0.43042 0.5739,-0.86084 z m -2.1521,3.29988 c 0.43042,-0.28695 0.43042,-0.14347 -0.14347,0.43042 -0.43042,0.43042 -0.71737,0.71736 -0.71737,0.71736 -0.28694,0 0.43042,-0.86083 0.86084,-1.14778 z m -4.30419,2.43904 c 0.14347,0 0.14347,0 0.14347,0.28695 0,0.14347 0,0.28694 -0.14347,0.28694 -0.14347,0 -0.28695,0 -0.28695,-0.14347 0,-0.14347 0.14348,-0.28694 0.28695,-0.43042 z m -2.86946,6.59976 c 0.57389,-0.71736 0.57389,-1.29126 0,-0.57389 -2.58251,3.01293 -2.86946,3.29988 -1.00431,0.57389 1.72167,-2.43904 5.73892,-6.8867 6.16934,-6.8867 0,0 -0.43042,0.71736 -1.14779,1.43473 -2.15209,2.58251 -2.15209,2.58251 0.28695,0.28694 1.14778,-1.14778 2.86946,-2.72599 3.7303,-3.29988 0.86084,-0.57389 1.5782,-1.14778 1.5782,-1.29125 0.14347,-0.14348 0.71737,-0.5739 1.43473,-1.00432 0.71737,-0.43041 1.5782,-0.86083 1.86515,-1.14778 1.00431,-0.71736 -2.15209,2.1521 -3.58682,3.29988 -1.43473,1.00431 -4.73461,4.16072 -8.03449,7.60407 -0.86084,1.00431 -1.72168,1.72168 -1.72168,1.72168 0,0 0.14347,-0.43042 0.43042,-0.71737 z m 26.97292,12.48215 c 0.14348,-0.14347 0.43042,-0.14347 0.43042,-0.14347 0.14348,0.14347 0,0.28695 -0.28694,0.28695 -0.28695,0.14347 -0.28695,0.14347 -0.14348,-0.14348 z m 7.31713,-4.01724 c -0.28695,0.57389 -1.00431,1.29125 -5.3085,4.87808 -0.86084,0.71737 -1.86515,1.43473 -2.1521,1.5782 -1.00431,0.5739 1.72168,-2.29556 3.58683,-3.7303 1.00431,-0.71736 2.15209,-1.72167 2.58251,-2.15209 1.00431,-1.29126 1.29126,-1.5782 1.43473,-1.43473 0.14347,0 0,0.43042 -0.14347,0.86084 z"
     id="text1"
     style="font-size:143.473px;line-height:1;font-family:Ahmedy;-inkscape-font-specification:Ahmedy;text-align:center;text-anchor:middle;fill:url(#linearGradient13);stroke-width:54.2258;stroke-linecap:round;paint-order:stroke fill markers"
     aria-label="ekle" />
  <path
     d="m 75.97965,154.75633 c 0,0.22727 0.22727,0.11363 0.45454,-0.34091 0.113635,-0.3409 0.113635,-0.3409 -0.113635,-0.11363 -0.22727,0.11363 -0.340905,0.3409 -0.340905,0.45454 z m -4.31813,11.13623 c -0.113635,0 -0.22727,0.22727 -0.22727,0.3409 0,0.34091 0,0.34091 0.22727,0.11364 0.22727,-0.45454 0.22727,-0.68181 0,-0.45454 z m 23.295175,-17.61343 c 0,0.11364 0.113635,0.11364 0.22727,0.11364 0.113635,-0.11364 0.22727,-0.22727 0.22727,-0.34091 0,-0.11363 -0.113635,-0.11363 -0.22727,-0.11363 -0.113635,0.11363 -0.22727,0.22727 -0.22727,0.3409 z m -0.568175,0.45454 c 0,0.11364 0.113635,0.22727 0.22727,0.22727 0.113635,-0.11363 0.22727,-0.22727 0.22727,-0.3409 0,-0.11364 -0.113635,-0.22727 -0.22727,-0.22727 -0.113635,0 -0.22727,0.22727 -0.22727,0.3409 z m 19.99976,19.77249 c -0.11363,-0.3409 -0.22727,-0.45454 -0.79544,-0.45454 -0.56818,0.11364 -1.13635,0.56818 -4.65904,4.09086 -3.86359,3.86359 -4.09086,4.09086 -5.79538,4.88631 -1.9318,0.90908 -3.29542,1.36362 -3.863595,1.24998 -0.45454,-0.22727 -2.04543,-2.49997 -3.068145,-4.5454 -1.477255,-2.95451 -3.63632,-9.99988 -4.31813,-14.43164 -0.22727,-0.90908 -0.568175,-2.04543 -0.795445,-2.61361 l -0.45454,-1.02271 1.249985,-1.24999 c 3.749955,-3.52268 10.11352,-7.72718 11.3635,-7.38627 0.56818,0.11363 0.68181,-0.11364 0.22727,-0.45454 -0.11363,-0.22727 0,-0.22727 0.22727,0 0.56818,0.45454 0.68181,0.45454 0.56818,-0.11364 -0.22727,-0.3409 -0.11364,-0.3409 0.11363,-0.11363 0.22727,0.22727 0.45454,0.22727 0.56818,0 0.11363,-0.11364 0.11363,-0.22727 -0.11364,-0.34091 -0.22727,0 -0.68181,-0.45454 -1.24998,-1.02271 -0.45454,-0.45454 -0.68181,-0.68181 -0.56818,-0.45454 0.34091,0.45454 0.45454,0.68181 0.22727,0.68181 -0.11363,0 -0.3409,-0.34091 -0.56817,-0.68181 -0.34091,-0.56818 -0.56818,-0.68181 -0.79545,-0.56818 -0.22727,0.11364 -0.45454,0 -0.45454,0 0,-0.11363 -0.22727,-0.3409 -0.56817,-0.45454 -1.02272,-0.45454 -1.136355,0 -0.45454,2.04543 0.11363,0.22727 -0.22727,0.45454 -1.02272,0.79545 -1.81816,0.90908 -5.45448,3.06814 -5.90902,3.63632 -0.22727,0.22727 -2.04543,1.70452 -2.159065,1.70452 -0.113635,0 -0.113635,-0.11363 0,-0.3409 0,-0.22727 0,-0.22727 -0.113635,-0.22727 -0.22727,0.11363 -0.340905,0.3409 -0.340905,0.56817 0,0.22727 -0.22727,0.68181 -0.795445,1.02272 -0.45454,0.45454 -0.795445,0.56817 -0.795445,0.45454 0,-0.11364 0.113635,-0.11364 0.22727,-0.11364 0.113635,0 0.22727,-0.22727 0.340905,-0.45454 0.22727,-0.3409 0.22727,-0.3409 -0.113635,-0.22727 -1.13635,0.56818 -0.795445,0 0.795445,-1.59089 1.022715,-1.02271 2.159065,-2.15906 2.613605,-2.72724 0.568175,-0.68181 0.90908,-0.90908 1.36362,-1.02271 0.340905,-0.11364 0.795445,-0.22727 0.795445,-0.34091 0.113635,-0.22727 0.340905,-0.3409 0.568175,-0.45454 0.22727,0 0,0.22727 -0.340905,0.56818 -0.45454,0.3409 -0.90908,0.68181 -0.90908,0.68181 -0.113635,0 -0.22727,0.11363 -0.22727,0.22727 0,0.22727 2.840875,-1.59089 2.840875,-1.9318 0.113635,-0.11363 0.22727,-0.22727 0.45454,-0.22727 0.340905,0 1.59089,-1.13635 1.477255,-1.24998 -0.113635,-0.11364 -0.22727,0 -0.45454,0.11363 -0.113635,0.11364 -0.22727,0.22727 -0.22727,0.11364 0,-0.11364 -0.22727,0 -0.568175,0.11363 -0.22727,0.22727 -0.568175,0.34091 -0.68181,0.34091 -0.22727,0 -0.68181,0.22727 -1.022715,0.45454 -0.45454,0.22727 -0.90908,0.56817 -1.249985,0.68181 -0.340905,0.11363 -1.59089,1.13635 -2.840875,2.15906 -0.22727,0.22727 -0.68181,0.56818 -1.13635,0.79545 -0.68181,0.45454 -1.59089,1.24998 -2.72724,2.38633 -0.795445,0.68181 -1.477255,1.13635 -2.386335,1.24999 -1.13635,0.11363 -2.613605,0.79544 -2.72724,1.24998 0,0.11364 0,0.56818 0,1.02272 0,0.68181 0,0.79544 -2.386335,3.29541 -1.36362,1.36362 -2.72724,2.95451 -3.295415,3.52269 -0.45454,0.56817 -0.795445,1.02271 -0.795445,1.02271 -0.113635,-0.11363 1.022715,-2.95451 2.49997,-6.24992 0.795445,-1.81816 2.159065,-4.65904 2.95451,-6.4772 2.49997,-5.56811 14.886185,-29.886 17.04525,-33.63596 0.68181,-1.02271 1.47726,-2.72724 2.04543,-3.74995 1.13635,-2.61361 1.24999,-3.40905 0.22727,-5.45448 -0.68181,-1.36362 -0.79544,-1.47726 -1.477255,-1.59089 -0.568175,-0.11364 -0.795445,-0.22727 -0.90908,-0.45454 0,-0.11364 -0.340905,-0.56818 -0.795445,-0.90908 -0.568175,-0.45454 -0.795445,-0.56818 -1.477255,-0.45454 -1.022715,0.11363 -1.13635,0.3409 -1.249985,1.59089 -0.113635,1.36362 -0.45454,2.04543 -2.95451,7.38627 -1.13635,2.38634 -2.386335,5.11358 -2.840875,6.24993 -0.45454,1.02271 -2.613605,5.56811 -4.886305,10.11351 -2.2727,4.5454 -4.659035,9.31807 -5.340845,10.68169 -0.568175,1.36362 -1.931795,4.09086 -2.840875,6.13629 -1.022715,2.15907 -2.49997,5.34085 -3.295415,7.15901 -0.68181,1.70452 -1.59089,3.52268 -1.704525,3.86359 -0.22727,0.3409 -0.45454,0.79544 -0.45454,0.90908 0,0.45454 -1.249985,3.52268 -2.2727,5.68175 -0.568175,1.02271 -1.022715,2.15906 -1.022715,2.49997 0.113635,0.68181 -2.613605,7.84081 -3.18178,8.74989 -0.340905,0.34091 -0.795445,1.36362 -1.13635,2.2727 -0.340905,0.90908 -0.795445,1.9318 -1.022715,2.38634 -0.45454,0.56817 -0.45454,0.79544 -0.45454,1.47725 0.22727,1.70453 0.568175,2.72724 0.795445,2.95451 0.22727,0.11364 0.340905,0.34091 0.340905,0.45454 0,0.22727 0.795445,0.90908 1.477255,1.24999 0.340905,0.11363 0.795445,0.22727 1.022715,0.11363 0.340905,0 1.13635,-0.11363 1.704525,-0.11363 1.022715,-0.11364 1.249985,-0.22727 1.81816,-0.90908 0.340905,-0.45454 0.795445,-0.79545 1.022715,-0.79545 0.340905,-0.11363 0.568175,-0.68181 1.59089,-2.6136 1.022715,-1.9318 3.068145,-5.11358 5.340845,-8.40899 1.13635,-1.59089 3.068145,-4.43177 4.431765,-6.36356 2.840875,-4.2045 3.18178,-4.5454 3.40905,-4.31813 0.113635,0.11363 0.340905,0.68181 0.568175,1.36362 0.90908,3.74995 2.95451,9.20443 4.31813,11.59077 1.249985,2.49997 2.2727,3.63632 4.99994,6.02265 1.59089,1.36362 2.159065,1.59089 3.86359,1.59089 0.68181,0 1.590895,0.11364 1.931795,0.22727 0.56818,0.11364 0.90908,0.11364 1.47726,-0.22727 0.45454,-0.22727 0.79544,-0.3409 0.90908,-0.3409 0.11363,0 0.3409,-0.11364 0.45454,-0.22727 0.11363,-0.22727 0.45454,-0.34091 0.68181,-0.34091 0.68181,0 2.2727,-1.47725 4.99994,-4.77267 0.56817,-0.68181 1.36362,-1.47725 1.70452,-1.93179 0.34091,-0.34091 0.56818,-0.68181 0.56818,-0.79545 0,0 0.22727,-0.3409 0.45454,-0.68181 0.68181,-0.79544 2.04543,-3.18178 2.2727,-4.09086 0.11363,-0.3409 0.11363,-0.90908 0.11363,-1.13635 z m -12.38621,-22.38609 c 0.11363,0 0.22727,0.11363 0.3409,0.22727 0.11364,0.11363 0,0.22727 -0.11363,0.22727 -0.11364,0 -0.22727,-0.11364 -0.22727,-0.22727 -0.11364,-0.11364 -0.11364,-0.22727 0,-0.22727 z m -16.70435,-9.0908 c -0.113635,0 -0.22727,-0.11364 -0.22727,-0.22727 0,-0.11364 0.113635,-0.11364 0.22727,-0.11364 0.113635,0.11364 0.22727,0.22727 0.22727,0.22727 0,0.11364 -0.113635,0.11364 -0.22727,0.11364 z m 0.90908,-1.9318 c -0.22727,0.34091 -0.340905,0.34091 -0.340905,0.22727 0,-0.3409 0.340905,-0.90908 0.45454,-0.79544 0.113635,0.11363 0,0.3409 -0.113635,0.56817 z m -8.522625,11.0226 c 0.113635,0 0.22727,0.11363 0.113635,0.22727 -0.113635,0.11363 -0.113635,0.22727 -0.22727,0.22727 0,0 -0.113635,-0.11364 -0.113635,-0.22727 0,-0.11364 0.113635,-0.22727 0.22727,-0.22727 z m -3.63632,7.95445 c 0,-0.22727 0.113635,-0.34091 0.113635,-0.34091 0.113635,0 0.113635,0.11364 0.113635,0.34091 0,0.11363 -0.113635,0.22727 -0.22727,0.22727 -0.113635,0 -0.113635,-0.11364 0,-0.22727 z m -1.36362,2.84087 c 0,-0.11363 0.113635,-0.22727 0.22727,-0.22727 0,0.11364 0,0.22727 -0.113635,0.34091 -0.22727,0.22727 -0.22727,0.22727 -0.113635,-0.11364 z M 72.5706,159.529 c 0.45454,-1.02272 0.68181,-1.36362 1.022715,-1.47726 0.340905,-0.11363 0.68181,-0.22727 0.795445,-0.3409 0.45454,-0.22727 0.340905,0.22727 -0.22727,1.02271 -0.22727,0.45454 -0.45454,1.13635 -0.68181,1.59089 -0.22727,0.68181 -0.340905,0.90908 -0.568175,0.68181 -0.22727,-0.11363 -0.22727,-0.45454 0,-0.3409 0.113635,0.11363 0.22727,-0.11364 0.340905,-0.34091 0.340905,-0.56817 0.340905,-0.56817 0,-0.56817 -0.22727,0 -0.45454,0.22727 -0.68181,0.56817 -0.68181,1.02272 -0.68181,0.68181 0,-0.79544 z m -0.90908,2.2727 c 0.22727,-0.22727 0.340905,-0.22727 0.340905,0 0,0.11363 -0.113635,0.3409 -0.340905,0.56817 -0.22727,0.11364 -0.22727,0.11364 -0.22727,-0.11363 0,-0.11364 0.113635,-0.34091 0.22727,-0.45454 z m -1.81816,3.18178 c 0,0.11363 -0.113635,0.45454 -0.340905,1.02271 -0.22727,0.45454 -0.340905,0.68181 -0.340905,0.56818 0,-0.34091 0.568175,-1.59089 0.68181,-1.59089 z m -1.13635,2.84087 c 0,-0.22727 0.22727,-0.56817 0.22727,-0.79544 0.113635,-0.11364 0.22727,-0.11364 0.113635,0.22727 -0.113635,0.22727 -0.22727,0.56817 -0.340905,0.79544 -0.113635,0.22727 -0.113635,0.11364 0,-0.22727 z m -0.45454,1.13635 0.340905,-0.45454 -0.113635,0.45454 c -0.113635,0.22727 -0.22727,0.56818 -0.340905,0.79545 -0.113635,0.22727 -0.113635,0.22727 -0.113635,0 0,-0.22727 0.113635,-0.56818 0.22727,-0.79545 z m -0.68181,1.81816 c 0.113635,0 0.113635,0.11364 0.113635,0.34091 -0.113635,0.3409 -0.22727,0.45454 -0.22727,0.11363 0,-0.22727 0,-0.3409 0.113635,-0.45454 z m -0.45454,1.36362 c 0.22727,-0.3409 0.340905,-0.3409 0.113635,0.22727 -0.22727,0.68181 -0.340905,0.79545 -0.340905,0.34091 0,-0.11364 0.113635,-0.45454 0.22727,-0.56818 z m -0.68181,1.70453 c 0.113635,-0.11364 0.22727,0 0.22727,0.11363 0,0 -0.113635,0.22727 -0.22727,0.22727 -0.113635,0.11364 -0.113635,0 -0.113635,0 0,-0.11363 0,-0.3409 0.113635,-0.3409 z m 8.86353,-13.86347 c -0.113635,0.3409 -0.340905,0.90908 -0.340905,1.24998 -0.113635,0.45454 -0.45454,1.36362 -0.795445,2.15907 -0.340905,0.68181 -0.68181,1.47725 -0.795445,1.81816 0,0.22727 -0.113635,0.56817 -0.22727,0.68181 -0.113635,0.11363 -0.45454,0.90908 -0.68181,1.81816 -0.568175,1.59089 -1.59089,3.97722 -2.159065,4.5454 -0.22727,0.22727 -0.45454,0.68181 -0.68181,1.02271 -0.22727,0.56818 -1.022715,1.36362 -1.022715,1.13635 0,-0.11363 0.113635,-0.3409 0.22727,-0.68181 0.340905,-0.68181 0.795445,-1.93179 0.68181,-2.04543 -0.113635,0 -0.45454,0.90908 -0.90908,2.04543 -0.68181,1.9318 -2.159065,4.65904 -3.068145,6.13629 -0.340905,0.45454 -0.795445,0.68181 -0.795445,0.34091 0,-0.11364 2.95451,-8.06809 4.886305,-13.18166 0.68181,-1.81816 1.36362,-3.40905 1.36362,-3.63632 0.113635,-0.22727 0.22727,-0.34091 0.340905,-0.22727 0.22727,0 0.340905,0 0.340905,-0.11364 0,-0.11363 0.113635,-0.11363 0.22727,0 0.113635,0 0.340905,-0.22727 0.45454,-0.45454 0.22727,-0.3409 0.340905,-0.45454 0.568175,-0.22727 0.113635,0.11364 0.22727,0 0.340905,-0.3409 0,-0.22727 0.340905,-0.56818 0.568175,-0.79545 0.340905,-0.22727 0.68181,-0.79544 0.90908,-1.36362 0.22727,-0.45454 0.568175,-1.24998 0.795445,-1.59089 0.45454,-0.79544 0.45454,-1.24998 0,-0.68181 -0.22727,0.34091 -0.340905,0.34091 -0.340905,0.11364 0,-0.22727 0.113635,-0.68181 0.340905,-1.02272 0.340905,-0.79544 0.340905,-1.02271 0.113635,-0.68181 -0.22727,0.34091 -0.568175,0.11364 -0.568175,-0.22727 0,-0.11363 -0.113635,-0.3409 -0.340905,-0.3409 -0.22727,-0.11364 -0.22727,0 -0.22727,0.3409 0,0.22727 -0.113635,0.56818 -0.340905,0.68181 -0.340905,0.22727 -0.340905,0.22727 0.22727,-1.24998 1.022715,-2.84088 4.5454,-10.45442 8.749895,-18.74978 2.72724,-5.68175 3.63632,-7.38627 3.63632,-6.70446 0,0.22727 -0.113635,0.79544 -0.340905,1.24998 -0.22727,0.34091 -0.340905,0.79545 -0.340905,0.79545 0.113635,0.11363 0.568175,-0.68181 1.022715,-1.59089 0.795445,-1.70453 1.59089,-2.72724 1.36362,-1.70453 -0.113635,0.22727 -0.568175,1.24999 -1.13635,2.2727 -0.45454,1.02272 -0.90908,1.9318 -0.90908,2.04543 0,0.22727 -0.90908,2.15907 -2.04543,4.31813 -2.2727,4.77267 -2.386335,4.88631 -2.159065,4.77267 0.113635,-0.11363 0.795445,-1.24998 1.36362,-2.49997 0.68181,-1.36362 1.249985,-2.2727 1.249985,-2.15906 0.113635,0.22727 -0.340905,1.24998 -0.45454,1.24998 -0.113635,0 -0.22727,0.34091 -0.340905,0.56818 0,0.3409 -0.340905,1.24998 -0.68181,2.04543 -0.340905,0.68181 -0.68181,1.59089 -0.795445,1.93179 0,0.34091 -0.340905,0.90908 -0.568175,1.36362 -0.22727,0.34091 -0.45454,0.90908 -0.568175,1.13635 -0.113635,0.22727 -0.340905,0.68181 -0.568175,0.90908 -0.340905,0.34091 -0.45454,0.68181 -0.113635,1.02272 0.22727,0.22727 0.22727,0.22727 -0.113635,0.11363 -0.45454,-0.11363 -0.795445,0.68181 -0.45454,1.24999 0.113635,0.45454 0.113635,0.56817 -0.22727,0.90908 -0.22727,0.22727 -0.45454,0.56817 -0.568175,0.79544 -0.113635,0.22727 -0.340905,0.68181 -0.568175,1.02272 -0.340905,0.3409 -0.340905,0.56817 -0.22727,0.56817 0.22727,0.11364 0.22727,0.22727 0,0.34091 -0.113635,0.22727 -0.113635,0.3409 -0.113635,0.3409 0.22727,0 -0.68181,1.59089 -0.90908,1.59089 -0.113635,0.11364 -0.22727,0.22727 -0.113635,0.45454 0,0.11364 -0.340905,1.02272 -0.68181,1.9318 -0.45454,0.90908 -0.90908,1.93179 -1.022715,2.15906 -0.22727,0.34091 -0.340905,0.79545 -0.45454,1.02272 z m 0.22727,-4.99994 c -0.340905,-0.34091 -0.568175,-0.22727 -0.45454,0.11363 0.113635,0.11364 0.340905,0.22727 0.45454,0.22727 0.340905,0 0.340905,-0.11363 0,-0.3409 z m -4.431765,12.49985 c -0.113635,0.11363 -0.22727,0.45454 -0.340905,0.68181 l -0.113635,0.56817 0.340905,-0.56817 c 0.113635,-0.22727 0.22727,-0.56818 0.22727,-0.68181 0,-0.22727 0,-0.22727 -0.113635,0 z m 8.749895,-20.34067 0.113635,-0.56817 -0.22727,0.56817 c -0.22727,0.22727 -0.340905,0.56818 -0.340905,0.56818 0,0.3409 0.340905,-0.11364 0.45454,-0.56818 z m 0.568175,-1.02271 c 0.113635,-0.22727 0.113635,-0.34091 0.113635,-0.34091 -0.113635,0 -0.22727,0.11364 -0.340905,0.34091 -0.113635,0.22727 -0.22727,0.45454 -0.113635,0.45454 0,0 0.22727,-0.22727 0.340905,-0.45454 z m 1.022715,-2.49997 c 0.113635,0 0.68181,-1.02272 0.68181,-1.36362 0,-0.11364 -0.22727,0.11363 -0.45454,0.56817 -0.22727,0.34091 -0.340905,0.68181 -0.340905,0.79545 z m -11.931675,27.72694 c 0,0.3409 0.340905,-0.11364 0.45454,-0.68181 l 0.113635,-0.45454 -0.22727,0.45454 c -0.22727,0.3409 -0.340905,0.56817 -0.340905,0.68181 z m 1.022715,-2.38634 c -0.113635,0.22727 -0.22727,0.34091 -0.22727,0.45454 0,0.11364 0.113635,0.11364 0.22727,0 0,-0.22727 0.113635,-0.45454 0.113635,-0.56817 0,-0.11364 -0.113635,0 -0.113635,0.11363 z m 78.52185,-7.84081 c -0.11363,-0.11364 -0.22727,-0.45454 -0.3409,-0.90908 -0.22727,-0.56818 -0.22727,-0.68181 -0.79545,-0.56818 -0.3409,0 -0.56817,0 -0.56817,-0.11363 0,-0.79545 -1.47726,0.3409 -4.99994,3.74995 -3.74996,3.74996 -6.70447,6.13629 -7.84082,6.13629 -0.22727,0 -0.3409,-0.22727 -0.3409,-0.90908 0,-2.49997 0.90908,-5.45448 2.84087,-8.86353 l 1.24999,-2.2727 -0.22727,-1.02271 c -0.11364,-0.56818 -0.11364,-1.13635 0,-1.13635 0.22727,-0.22727 0.11363,-0.68181 -0.22727,-1.02272 -0.22727,-0.3409 -0.22727,-0.3409 0,-0.3409 0.45454,-0.11364 0.45454,-0.45454 0,-0.45454 -0.11364,0 -0.68181,-0.45454 -1.13635,-0.90908 -0.79545,-0.68181 -2.15907,-1.59089 -2.72724,-1.59089 -0.11364,0 -0.34091,0.11363 -0.45454,0.3409 -0.22727,0.22727 -0.56818,0.45454 -0.68181,0.56818 -0.22727,0.11363 -0.45454,0.45454 -0.56818,0.79544 -0.22727,0.45454 -0.56817,1.13635 -0.90908,1.59089 -0.22727,0.45454 -0.79544,1.47726 -1.13635,2.15907 -0.3409,0.68181 -0.79544,1.36362 -0.90908,1.47725 -0.22727,0.22727 -0.79544,0.90908 -1.24998,1.59089 -0.56818,0.79545 -1.13635,1.59089 -1.36362,1.81816 l -0.22727,0.45454 -0.11364,-0.45454 c 0,-0.45454 0,-0.45454 -0.56817,0.34091 -3.06815,4.31813 -6.59083,7.49991 -9.0908,8.40899 -0.79545,0.3409 -0.90908,0.22727 -0.90908,-0.56818 0,-1.70452 2.72724,-7.38627 4.8863,-10.22715 0.45454,-0.56817 1.02272,-1.36362 1.13635,-1.70452 0.45454,-0.79545 4.99994,-5.90902 5.90902,-6.59083 1.36362,-0.90908 3.29542,-2.15907 3.86359,-2.2727 0.90908,-0.34091 3.40905,-0.79545 4.5454,-0.90908 1.13635,-0.11364 1.13635,-0.11364 1.47726,-0.90908 l 0.45454,-0.90908 -0.56818,-0.56818 c -0.45454,-0.45454 -0.90908,-0.68181 -1.47725,-0.79544 -0.45454,-0.11364 -0.90908,-0.22727 -1.02272,-0.22727 -0.22727,0 -0.68181,-0.11364 -1.13635,-0.22727 -0.68181,-0.22727 -0.90908,-0.22727 -0.90908,0 -0.11363,0.22727 -0.45454,0.22727 -0.45454,-0.11364 0,-0.11363 -0.22727,-0.3409 -0.45454,-0.45454 -0.3409,-0.22727 -0.3409,-0.22727 -0.56817,0 -0.11364,0.22727 -0.11364,0.22727 -0.11364,0 0,-0.56817 -3.52268,0.11364 -5.45448,0.90908 -1.47725,0.68181 -3.74995,2.49997 -5.79538,4.43177 -0.90908,0.79544 -1.81816,1.47725 -2.15907,1.59089 -0.68181,0.11363 -1.70452,1.13635 -1.59089,1.59089 0.11364,0.11363 -0.3409,1.02271 -1.13635,2.04543 -0.68181,1.02271 -1.70452,2.49997 -2.04543,3.18178 -0.45454,0.79544 -1.02271,1.81816 -1.47725,2.49997 -0.68181,1.02271 -0.79545,1.24998 -0.90908,2.95451 -0.11364,1.02271 -0.22727,2.04543 -0.34091,2.38633 -0.22727,0.56818 -0.56817,4.09086 -0.45454,4.09086 0.11364,0 0.34091,0.56818 0.45454,1.36362 0.45454,1.59089 1.13635,2.84088 2.2727,3.86359 0.68181,0.56818 0.90908,0.68181 1.70453,0.68181 0.56817,0 1.13635,-0.11363 1.36362,-0.22727 0.22727,-0.22727 0.45454,-0.22727 0.79544,0 0.45454,0.22727 1.47726,0.11364 1.47726,-0.22727 0,0 0.22727,0 0.45454,0 1.59089,0.34091 8.29535,-5.68175 8.52262,-7.61354 0.11364,-0.34091 0.34091,-0.79545 0.79545,-1.24999 l 0.56817,-0.68181 0.22727,1.13635 c 0.22727,2.38634 0.68181,3.97723 1.24999,4.99994 0.79544,1.47726 1.70452,2.61361 2.49997,3.06815 0.68181,0.45454 0.79544,0.45454 1.70452,0.22727 0.79545,-0.11364 1.24999,-0.11364 1.59089,0 0.56818,0.22727 0.68181,0.22727 0.79545,-0.11364 0.22727,-0.3409 0.22727,-0.3409 0.45454,0 0.22727,0.34091 0.3409,0.22727 1.24998,-0.22727 0.56818,-0.22727 1.47726,-0.79544 1.9318,-1.13635 1.36362,-0.90908 4.09086,-3.63632 5.11357,-5.11357 0.45454,-0.68181 1.13635,-1.59089 1.36362,-2.04543 0.68181,-0.79545 2.61361,-4.65904 2.49997,-4.77267 z M 117.7974,150.66547 c 0.11363,0 0.11363,0.22727 -0.22727,0.56817 -0.45454,0.45454 -0.68181,0.56818 -0.68181,0.22727 0,-0.22727 0.56817,-0.79544 0.90908,-0.79544 z m 48.06758,-0.11364 c 0.11363,0 0.22727,-0.11363 0.22727,-0.22727 0.11363,-0.11363 0,-0.22727 -0.11364,-0.22727 -0.11363,0 -0.11363,0.11364 -0.11363,0.22727 0,0.11364 0,0.22727 0,0.22727 z m 0.90908,-0.79544 c 0.11363,0 0.22727,-0.11364 0.22727,-0.22727 0,-0.11364 -0.11364,-0.11364 -0.22727,-0.11364 -0.11364,0 -0.22727,0 -0.22727,0.11364 0,0.11363 0.11363,0.22727 0.22727,0.22727 z m 1.02271,-0.56818 c 0.22727,-0.11363 0.34091,-0.68181 0,-0.79544 -0.11363,0 -0.22727,0.11363 -0.22727,0.3409 0,0.34091 0,0.45454 0.22727,0.45454 z m -3.63632,3.29542 c 0.22727,-0.11364 0.22727,-0.34091 0.22727,-0.45454 -0.11363,-0.11364 -0.45454,0.45454 -0.45454,0.68181 0,0.11363 0.11364,0 0.22727,-0.22727 z m -20.22703,35.90866 c 0,0.3409 0.22727,0.11363 0.45454,-0.45454 l 0.34091,-0.56818 -0.34091,0.45454 c -0.22727,0.22727 -0.45454,0.56818 -0.45454,0.56818 z m -0.79544,1.36362 -0.34091,0.79544 0.45454,-0.56817 c 0.45454,-0.45454 0.68181,-1.02272 0.45454,-1.02272 -0.11363,0 -0.3409,0.34091 -0.56817,0.79545 z m -7.61355,16.02253 c 0,0.34091 0.11364,0.34091 0.34091,0.11364 0,-0.11364 0,-0.22727 -0.11364,-0.34091 -0.11363,0 -0.22727,0.11364 -0.22727,0.22727 z m 4.2045,-18.29523 c 0,0.22727 0.11363,0.3409 0.11363,0.22727 0.11364,0 0.11364,-0.22727 0,-0.34091 0,-0.11363 -0.11363,-0.11363 -0.11363,0.11364 z m 3.63632,-5.68175 c 0,0.22727 0.11363,0.3409 0.22727,0.3409 0.11363,0 0.11363,-0.11363 0.11363,-0.3409 0,-0.11364 0,-0.22727 -0.11363,-0.22727 -0.11364,0 -0.22727,0.11363 -0.22727,0.22727 z m 0.45454,-0.45454 c 0.11363,0.11363 0.22727,0.22727 0.22727,0.22727 0,0 0.11363,-0.11364 0.11363,-0.22727 0,-0.11364 -0.11363,-0.22727 -0.22727,-0.22727 -0.11363,0 -0.11363,0.11363 -0.11363,0.22727 z m 13.9771,-8.97717 c -0.22727,-0.11363 -0.22727,0 -0.22727,0.11364 0.11364,0.22727 0.22727,0.3409 0.34091,0.3409 0.45454,0 0.3409,-0.3409 -0.11364,-0.45454 z m -6.93173,-2.49997 c -0.11364,0.11364 0,0.22727 0.22727,0.22727 0.11363,0 0.22727,-0.11363 0.22727,-0.22727 0,-0.3409 -0.34091,-0.3409 -0.45454,0 z m -11.47714,18.97705 c 0,0.11363 0.11364,0.22727 0.22727,0.22727 0.22727,-0.22727 0.22727,-0.56818 -0.11363,-0.56818 -0.11364,0 -0.22727,0.11364 -0.11364,0.34091 z m 29.77237,-39.65862 c 0.11364,-0.11363 0,-0.22727 -0.11363,-0.11363 -0.11364,0 -0.34091,0.11363 -0.34091,0.3409 0,0.11364 0,0.11364 0.22727,0.11364 0.11364,0 0.22727,-0.22727 0.22727,-0.34091 z m -17.27252,18.63614 c 0.11364,-0.11363 0,-0.22727 -0.22727,-0.11363 -0.22727,0 -0.3409,0.11363 -0.45454,0.3409 0,0.11364 0,0.22727 0.22727,0.11364 0.22727,0 0.45454,-0.11364 0.45454,-0.34091 z m -9.54534,17.61343 c 0.11364,0 0.11364,-0.22727 0,-0.34091 0,-0.11363 -0.11363,-0.11363 -0.11363,0.11364 0,0.22727 0.11363,0.3409 0.11363,0.22727 z m -1.36362,3.52268 c 0.11364,0.22727 0.34091,-0.11363 1.24999,-2.15906 0.45454,-1.13635 0.45454,-1.02272 0.22727,-1.02272 -0.11364,0 -0.22727,0.11364 -0.22727,0.22727 0,0.11364 -0.11364,0.34091 -0.11364,0.34091 -0.3409,0 -0.90908,1.36362 -0.79544,1.59089 0.11363,0.11363 0.11363,0.22727 0,0.22727 -0.22727,0 -0.45454,0.56817 -0.34091,0.79544 z m 39.77225,-41.2495 c -0.79544,-1.24999 -2.95451,-2.95451 -3.74995,-3.18178 -0.34091,-0.11364 -0.79545,-0.22727 -0.90908,-0.45454 -0.56818,-0.45454 -2.2727,-0.22727 -4.2045,0.56817 -1.70452,0.68181 -1.70452,1.02272 0.11364,0.34091 0.56817,-0.22727 1.36362,-0.34091 1.59089,-0.34091 0.45454,0 0.3409,0.11364 -0.45454,0.45454 -1.02272,0.56818 -1.36362,0.79545 -0.34091,0.45454 0.22727,-0.11363 0.68181,-0.11363 0.90908,-0.11363 0.22727,0 0.56818,-0.22727 0.68181,-0.34091 0.11364,-0.11363 0.45454,-0.22727 0.68181,-0.22727 0.68181,0 0.56818,0.68181 0,0.79545 -0.3409,0.11363 -0.90908,0.3409 -1.36362,0.45454 -1.47725,0.79544 -2.15906,1.02271 -2.49997,0.68181 -0.22727,-0.11364 -0.22727,-0.22727 -0.11363,-0.34091 0.11363,-0.11363 0.22727,-0.22727 0.22727,-0.3409 0,-0.11364 -0.34091,0 -0.68181,0.3409 -0.45454,0.22727 -0.90908,0.45454 -0.90908,0.45454 -0.11364,0 -0.45454,0.22727 -0.79545,0.45454 -0.3409,0.22727 -0.45454,0.45454 -0.3409,0.56818 0.22727,0.11363 0.45454,0 0.56817,-0.22727 0.22727,-0.22727 0.45454,-0.45454 0.56818,-0.45454 0.22727,0 0.22727,0 0.22727,-0.11364 0,-0.11363 0.22727,-0.22727 0.45454,-0.22727 0.56817,0 0.45454,0.22727 -0.34091,0.90908 -0.3409,0.34091 -0.68181,0.79545 -0.68181,0.90908 0,0.34091 0.11364,0.34091 0.45454,0 0.22727,-0.11363 0.34091,-0.22727 0.56818,-0.11363 0.22727,0.11363 0.22727,0.22727 -0.11364,0.3409 -0.22727,0 -0.68181,0.22727 -0.90908,0.45454 -1.02271,0.79545 -1.13635,0.79545 -0.90908,0.45454 0.11364,-0.45454 -0.56817,0.11364 -3.06814,2.49997 -2.49997,2.38634 -4.5454,4.99994 -4.43177,5.45448 0.11364,0.22727 0.11364,0.34091 0,0.22727 -0.11363,-0.22727 -0.3409,-0.11363 -0.56817,0.22727 -0.22727,0.34091 -0.45454,0.56818 -0.56818,0.56818 0,0 -0.11363,0.22727 -0.11363,0.3409 0,0.11364 0,0.22727 -0.11364,0.22727 -0.11363,0.11364 -0.45454,0.56818 -0.90908,1.24999 -0.45454,0.56817 -0.79544,1.13635 -0.90908,1.13635 -0.11363,0 -1.93179,2.49997 -2.38633,3.40905 -0.11364,0.11363 -0.56818,0.68181 -1.02272,1.24998 -0.56817,0.56818 -0.79544,0.79545 -0.90908,0.56818 -0.11363,-0.11364 -0.22727,-0.11364 -0.3409,0 0,0.22727 0,0.3409 0.11363,0.45454 0.22727,0.11363 0.11364,0.22727 -0.22727,0.56817 -0.3409,0.45454 -0.45454,0.56818 -0.68181,0.22727 -0.22727,-0.3409 -0.22727,-0.3409 0,0.11364 0.11364,0.3409 0.11364,0.45454 -0.11363,0.90908 -0.90908,1.36362 -1.24999,1.93179 -1.47726,1.81816 -0.11363,0 -0.11363,0.11363 0,0.22727 0,0.11363 0,0.3409 -0.11363,0.3409 -0.11364,0 -0.22727,0.11364 -0.22727,0.22727 0,0.11364 -0.34091,0.79545 -0.79545,1.59089 -0.56817,0.79545 -0.90908,1.47726 -0.90908,1.59089 0,0.22727 -0.11363,0.45454 -0.22727,0.56818 -0.22727,0.11363 -0.45454,0.56817 -0.68181,1.13635 -0.11363,0.45454 -0.90908,1.93179 -1.59089,3.29541 -0.68181,1.36362 -1.47725,3.18178 -1.81816,4.09086 -0.90908,2.2727 -1.13635,2.84088 -1.47725,2.95451 -0.22727,0.11364 -0.22727,0.22727 -0.22727,0.56818 0.11363,0.22727 0.11363,0.3409 -0.11364,0.22727 -0.22727,-0.11364 -0.3409,0 -0.3409,0.11363 0,0.11364 -0.11364,0.45454 -0.34091,0.56818 -0.22727,0.22727 -0.45454,0.56817 -0.45454,0.79544 0,0.22727 -0.11363,0.56818 -0.22727,0.68181 -0.11363,0.11364 -0.3409,0.45454 -0.45454,0.79545 -0.11363,0.22727 -0.45454,0.56817 -0.68181,0.56817 -0.22727,0.11364 -0.3409,0.22727 -0.22727,0.56818 0.11364,0.3409 -0.90908,1.70452 -1.24998,1.70452 -0.34091,0 0,-1.93179 0.56817,-3.18178 0.34091,-0.79544 0.22727,-0.79544 -0.11363,-0.79544 -0.11364,0 -0.22727,0.11363 -0.22727,0.3409 0,0.22727 -0.11364,0.34091 -0.34091,0.34091 -0.45454,0 -0.56817,-0.45454 -0.11363,-0.56818 0.11363,-0.11363 0.22727,-0.22727 0.22727,-0.45454 0,-0.11363 0.22727,-0.56817 0.45454,-1.13635 0.3409,-0.45454 0.45454,-0.79544 0.45454,-0.79544 -0.11364,0 0,-0.22727 0.11363,-0.45454 0.22727,-0.22727 0.34091,-0.68181 0.34091,-0.90908 0,-0.34091 0.11363,-0.45454 0.3409,-0.34091 0.11364,0.11364 0.22727,0 0.11364,0 -0.11364,-0.22727 2.72724,-5.90902 3.18178,-6.36356 0.22727,-0.22727 0.3409,-0.45454 0.3409,-0.56817 0,-0.11364 0.22727,-0.45454 0.45454,-0.90908 0.34091,-0.34091 0.45454,-0.79545 0.45454,-1.02272 0,-0.22727 0.11364,-0.3409 0.22727,-0.22727 0.11364,0.11364 1.02272,-1.59089 2.38634,-4.43176 0.3409,-0.79545 0.79544,-1.70453 0.90908,-1.9318 0.11363,-0.22727 0.79544,-1.59089 1.47725,-2.84087 0.56818,-1.36362 1.81816,-3.74996 2.72724,-5.34085 0.90908,-1.59089 2.04543,-3.74995 2.49997,-4.65903 0.56818,-0.90908 1.24999,-2.38634 1.70453,-3.18178 0.45454,-0.79545 1.02271,-1.70453 1.24998,-2.04543 0.11364,-0.34091 0.45454,-1.13635 0.68181,-1.70453 0.45454,-1.47725 1.70453,-3.86359 3.29542,-6.59083 1.02271,-1.59089 1.47725,-2.6136 1.59089,-3.40905 0.3409,-1.36362 0.22727,-2.6136 -0.11364,-2.49997 -0.22727,0.11364 -0.3409,0.11364 -0.3409,0 0,-0.11363 -0.22727,-0.22727 -0.56818,-0.3409 -0.3409,-0.11364 -0.90908,-0.45454 -1.36362,-1.02272 -0.56817,-0.45454 -1.02271,-0.79544 -1.24998,-0.79544 -0.22727,0 -0.34091,-0.11364 -0.34091,-0.34091 0.11364,-0.11363 0.11364,-0.22727 0,-0.22727 -0.11363,0 -0.22727,0.11364 -0.22727,0.22727 0,0.11364 -0.22727,0.11364 -0.45454,0.11364 -0.68181,-0.22727 -0.90908,0 -1.02271,0.90908 -0.11364,0.56817 -2.84088,6.02265 -4.43177,8.97716 -1.24998,2.2727 -3.74995,6.93174 -5.34084,9.99988 -2.49997,4.77267 -8.40899,17.49979 -9.0908,19.31795 -0.34091,0.90908 -1.24999,2.95451 -1.70453,3.86359 -0.79544,1.47726 -4.09086,11.47714 -5.22721,15.568 -1.36362,5.11357 -1.70452,6.47719 -2.04543,6.59083 -0.22727,0.11363 -0.3409,0.79544 0,0.90908 0.11364,0.11363 0.11364,0.22727 0,0.3409 -0.22727,0.11364 -0.22727,0.34091 0,1.02272 0.22727,1.02271 0.45454,1.24998 0.56818,0.79544 0.11363,-0.11363 0.22727,0 0.22727,0.34091 0.11363,0.3409 0.22727,0.68181 0.3409,0.90908 0.11364,0.11363 0.22727,0.45454 0.22727,0.56817 0,0.22727 0.11364,0.34091 0.22727,0.22727 0.22727,-0.11363 0.45454,0 0.56818,0 0.11363,0.11364 0.3409,0.22727 0.56817,0.22727 0.90908,0.11364 1.02272,0.11364 1.13635,0.34091 0.34091,0.22727 0.68181,0.11363 0.68181,-0.34091 -0.11363,-0.22727 0,-0.56817 0.34091,-0.79544 0.22727,-0.34091 0.45454,-0.68181 0.45454,-0.90908 0,-0.56818 0.3409,-0.45454 0.45454,0.22727 l 0.22727,0.45454 0.3409,-0.68181 c 0.11364,-0.45454 0.68181,-1.9318 1.02272,-3.52269 0.79544,-2.72724 2.15906,-7.159 2.49997,-7.49991 0,-0.11363 0.11363,-0.11363 0.22727,0.11364 0,0.22727 0.11363,0.22727 0.45454,-0.34091 l 0.3409,-0.56817 -0.11363,0.56817 -0.11364,0.68181 0.34091,-0.68181 c 0.22727,-0.45454 0.68181,-1.47725 1.13635,-2.38633 0.45454,-0.90908 1.02271,-2.04543 1.24998,-2.38634 0.22727,-0.45454 0.56818,-1.24998 0.79545,-1.81816 0.22727,-0.56817 0.56817,-0.90908 0.68181,-0.90908 0.11363,0 0.11363,0.11364 0.11363,0.22727 -0.22727,0.45454 0.11364,0.34091 0.34091,-0.11363 0.11363,-0.22727 0.90908,-1.59089 1.81816,-3.06815 0.79544,-1.47725 1.93179,-3.52268 2.49997,-4.43176 0.68181,-0.90908 1.47725,-2.15907 1.70452,-2.61361 0.34091,-0.45454 1.02272,-1.47725 1.59089,-2.2727 1.36362,-1.93179 1.81816,-1.93179 1.81816,-0.11363 0,0.45454 0.11364,1.02271 0.22727,1.24998 0.11364,0.34091 0.34091,0.68181 0.45454,0.90908 0.11364,0.34091 0.45454,0.45454 1.13635,0.56818 0.68181,0 1.13635,0.22727 1.24999,0.45454 0.3409,0.3409 0.56817,0.3409 1.70452,0.3409 0.90908,0 2.15907,-0.11363 3.06815,-0.3409 1.93179,-0.45454 5.79538,-2.04543 6.70446,-2.72724 0.34091,-0.22727 0.68181,-0.45454 0.68181,-0.45454 0.11364,0 0.68181,-0.45454 1.36362,-0.90908 2.61361,-1.81816 5.90902,-5.68175 6.13629,-7.04537 0,-0.22727 0.22727,-0.56818 0.34091,-0.79545 0.11363,-0.3409 0.45454,-0.79544 0.68181,-1.24998 0.11363,-0.45454 0.45454,-0.90908 0.56817,-1.02272 1.02272,-1.24998 2.49997,-5.56811 2.84088,-8.63626 0.22727,-2.2727 -0.22727,-4.65903 -1.24999,-6.02265 z m -29.5451,5.56811 c 0.11364,-0.3409 1.70453,-3.40905 1.81816,-3.29541 0.11364,0.22727 -0.3409,1.59089 -1.02271,2.49997 -0.68181,1.02271 -0.90908,1.36362 -0.79545,0.79544 z m -9.88624,17.49979 c 0.11363,-0.11363 0.22727,0 0.11363,0.22727 -0.11363,0.11364 -0.11363,0.34091 -0.11363,0.45454 0,0.11364 -0.11364,0.22727 -0.22727,0.22727 -0.22727,0 0,-0.79544 0.22727,-0.90908 z m -9.43171,29.43147 c -0.22727,0.3409 -0.56817,0.45454 -0.45454,0.11363 0.11364,-0.22727 0.22727,-0.56817 0.90908,-2.72724 0.22727,-0.56817 0.34091,-1.02271 0.34091,-0.90908 0,0.34091 -0.68181,3.06815 -0.79545,3.52269 z m 5.45448,-11.59077 c 0,0.11363 -0.22727,0.56817 -0.45454,1.02271 -0.11363,0.34091 -0.56817,1.24999 -0.79544,1.81816 -0.56818,1.02272 -1.02272,2.38634 -1.59089,4.5454 -0.11364,0.56818 -0.45454,1.24999 -0.56818,1.24999 -0.11363,0.11363 -0.22727,0.22727 -0.22727,0.3409 0,0.11364 -0.11363,0.34091 -0.3409,0.56818 -0.34091,0.56817 -0.45454,0 -0.22727,-1.13635 0.22727,-1.24999 0.22727,-1.59089 0,-1.47726 -0.11364,0 -0.22727,0.22727 -0.22727,0.45454 0,0.22727 0,0.34091 -0.11364,0.34091 -0.11363,-0.22727 0.56818,-3.52269 1.24999,-6.02266 0.45454,-1.70452 0.56817,-1.93179 0.79544,-3.06814 0.11364,-0.45454 0.22727,-0.90908 0.34091,-0.90908 0.11363,0 0.11363,-0.22727 0,-0.45454 0,-0.22727 0,-0.34091 0.11363,-0.34091 0.11364,0.11364 0.22727,0 0.11364,-0.22727 0,-0.22727 0.11363,-0.45454 0.3409,-0.68181 0.22727,-0.22727 0.68181,-1.47725 1.13635,-2.6136 0.45454,-1.24999 0.90908,-2.38634 1.13635,-2.61361 0.11364,-0.11363 0.22727,-0.3409 0.22727,-0.45454 0,-0.11363 0.11364,-0.56817 0.34091,-1.02271 0.22727,-0.34091 0.90908,-1.9318 1.47725,-3.29542 0.68181,-1.47725 1.36362,-3.06814 1.59089,-3.52268 0.22727,-0.56818 0.45454,-1.13635 0.45454,-1.47726 0,-0.22727 0,-0.3409 0.11364,-0.22727 0.22727,0.22727 0.45454,-0.22727 0.68181,-0.90908 0.11363,-0.56817 0.11363,-0.56817 -0.22727,-0.22727 -0.34091,0.56818 -0.34091,0.34091 0.11363,-0.68181 0.34091,-0.68181 0.34091,-0.68181 0.34091,-0.22727 -0.22727,1.02272 0.11363,0.22727 2.04543,-3.74995 1.59089,-3.52269 4.31813,-8.86353 4.5454,-9.0908 0.22727,-0.11364 0.3409,-0.34091 0.3409,-0.56818 0,-0.3409 0.68181,-1.59089 0.79545,-1.47725 0.11363,0.11363 -1.59089,3.74995 -2.84088,6.24992 -0.22727,0.56818 -0.45454,1.02272 -0.45454,1.24999 0,0.11363 -0.11363,0.22727 -0.22727,0.22727 -0.11363,0 -0.11363,0.11363 -0.11363,0.3409 0.11363,0.22727 -0.45454,1.70453 -2.15907,5.22721 -0.22727,0.56818 -0.56817,1.02272 -0.68181,1.02272 -0.22727,0.11363 -0.22727,0.11363 0,0.3409 0.22727,0.22727 0.34091,0.34091 0.11364,0.79545 -0.22727,0.68181 -0.22727,0.68181 0.11363,0.56817 0.22727,-0.11363 0.34091,0 0.22727,0.22727 -0.11363,0.22727 -0.45454,1.02272 -0.68181,1.9318 -0.3409,0.90908 -0.79544,2.2727 -1.02271,2.95451 -0.34091,0.79544 -0.56818,1.81816 -0.56818,2.38633 -0.11363,1.02272 -0.3409,1.59089 -1.13635,3.40905 -0.22727,0.45454 -0.56817,1.36362 -0.79544,1.81816 -0.34091,0.56818 -0.45454,1.13635 -0.45454,1.24999 0,0.11363 -0.45454,1.02271 -0.90908,1.93179 -0.45454,1.02272 -0.90908,1.9318 -0.90908,2.2727 -0.11364,0.22727 -0.34091,0.68181 -0.56818,1.02272 -0.3409,0.45454 -0.45454,0.79544 -0.45454,0.90908 z m 1.02272,2.95451 c -0.11364,0.11363 -0.22727,0.22727 -0.22727,0.22727 0,0 -0.11364,-0.11364 -0.11364,-0.22727 0,-0.11364 0.11364,-0.11364 0.22727,-0.11364 0.11364,0 0.11364,0 0.11364,0.11364 z m 11.02259,-13.40893 c -0.45454,0.79544 -0.68181,1.02271 -0.68181,0.79544 0,-0.11363 1.02272,-1.81816 1.13635,-1.93179 0.34091,-0.11364 0.22727,0.22727 -0.45454,1.13635 z m 2.15907,-3.52269 c -0.11364,0 -0.22727,0.11364 -0.22727,0.22727 0,0.34091 -0.90908,1.47726 -0.90908,1.24999 0,-0.22727 1.59089,-2.61361 1.70452,-2.49997 0.11364,0.11363 -0.45454,1.02271 -0.56817,1.02271 z m 23.74971,-28.52238 c 0,0 0.11364,0 0.22727,0.22727 0,0.11363 0.22727,0.22727 0.34091,0.22727 0.22727,0 0.45454,0.11363 0.56817,0.22727 0.34091,0.3409 0.22727,0.3409 -0.68181,0.11363 -0.3409,0 -0.68181,-0.56817 -0.45454,-0.79544 z m -10.56805,9.88624 c 0.56817,-0.56817 0.56817,-0.3409 0,0.34091 -0.22727,0.3409 -0.56818,0.68181 -0.68181,0.68181 -0.22727,0 0.11363,-0.34091 0.68181,-1.02272 z m -2.38634,2.72724 c 0.22727,-0.3409 0.56818,-0.68181 0.79545,-0.90908 0.22727,-0.22727 0.45454,-0.45454 0.45454,-0.45454 0.22727,0 -0.11364,0.68181 -0.56818,1.24999 -0.22727,0.22727 -0.68181,0.79544 -1.13635,1.24998 -0.3409,0.45454 -1.02271,1.13635 -1.24998,1.59089 -1.02272,1.24999 -1.47726,1.70453 -1.47726,1.59089 0,-0.22727 2.38634,-3.52268 3.18178,-4.31813 z m -3.52268,4.65904 c 0.11363,-0.11364 0.11363,-0.11364 0.11363,0 0,0.11363 0,0.3409 -0.11363,0.3409 -0.11364,0.11364 -0.22727,0 -0.22727,-0.11363 0,0 0.11363,-0.22727 0.22727,-0.22727 z m -1.13635,1.47725 c 0.3409,-0.68181 0.56817,-0.79544 0.56817,-0.45454 0,0.11364 -0.22727,0.34091 -0.45454,0.56818 l -0.3409,0.45454 z m -1.02272,1.59089 c 0,-0.22727 0.11364,-0.3409 0.22727,-0.22727 0,0 0,0.22727 -0.11363,0.34091 -0.22727,0.11363 -0.22727,0.11363 -0.11364,-0.11364 z m -0.11363,9.20444 c -0.11364,0 -0.22727,-0.11364 -0.11364,-0.22727 0,-0.11364 0.11364,-0.22727 0.22727,-0.22727 0,0 0,0.11363 0,0.22727 0,0.11363 -0.11363,0.22727 -0.11363,0.22727 z m 3.29541,0.45454 c -0.22727,0.11363 -0.56817,0.11363 -0.90908,0.22727 -0.45454,0 -0.56817,0 -0.56817,-0.45454 0,-0.22727 0.11363,-0.45454 0.22727,-0.34091 0.11363,0.11364 0.3409,0 0.56817,-0.22727 0.22727,-0.22727 0.45454,-0.22727 0.79545,-0.11363 0.45454,0.3409 0.45454,0.68181 -0.11364,0.90908 z m -0.45454,-1.59089 c 0,-0.22727 0,-0.22727 0.11364,-0.11364 0,0.22727 0,0.34091 0,0.45454 -0.11364,0 -0.11364,-0.11363 -0.11364,-0.3409 z m 11.70441,-6.4772 c -0.45454,0.34091 -1.24999,1.02272 -1.9318,1.36362 -0.56817,0.34091 -1.36362,0.79545 -1.81816,1.02272 -0.3409,0.22727 -0.90908,0.56817 -1.13635,0.79544 -1.13635,1.02272 -6.70446,2.38634 -7.49991,1.81816 -0.45454,-0.11363 -1.24998,0.22727 -1.13635,0.56818 0.11364,0.45454 -0.22727,0.3409 -0.45454,-0.11364 -0.11363,-0.11363 -0.22727,-0.56817 -0.22727,-0.90908 0,-0.22727 -0.11363,-0.56817 -0.22727,-0.68181 -0.22727,-0.22727 -0.11363,-0.22727 0.22727,-0.22727 0.22727,0 0.45454,0.11364 0.45454,0.22727 0.11364,0 0.34091,0.11364 0.45454,0.11364 0.34091,0 0.34091,0 0,-0.22727 -0.22727,-0.11364 -0.22727,-0.22727 0.11364,-0.11364 0.22727,0.11364 0.68181,0.11364 1.13635,0.11364 l 0.79544,0.11363 -0.68181,0.11364 c -0.45454,0.11363 -0.79544,0.3409 -0.79544,0.3409 0,0.34091 0.45454,0.45454 0.68181,0.34091 0.11363,-0.11364 0.3409,-0.22727 0.45454,-0.22727 0.22727,0 0.68181,-0.11364 1.13635,-0.22727 0.56817,-0.11364 0.90908,-0.11364 1.02271,0 0.11364,0.11363 0.22727,0.11363 0.22727,0 0,-0.11364 0.11364,-0.22727 0.22727,-0.11364 0.22727,0 0.34091,0 0.34091,-0.22727 0,-0.11363 0.11363,-0.22727 0.22727,-0.3409 0.22727,0 0.3409,-0.22727 0.3409,-0.34091 0,-0.3409 0.22727,-0.45454 1.02272,-0.68181 0.45454,-0.11363 1.02271,-0.11363 1.13635,-0.11363 0.11363,0 0.68181,-0.11364 1.24998,-0.34091 2.15907,-0.90908 4.77267,-2.84087 5.45448,-3.97722 0.45454,-0.68181 1.02272,-1.02272 1.02272,-0.56818 0,0.45454 -1.02272,1.70453 -1.81816,2.49997 z m 6.02265,-17.49979 c -0.22727,2.04543 -1.13635,5.45448 -1.70452,6.4772 -0.22727,0.45454 -0.79545,1.47725 -1.24999,2.49997 -1.36362,2.6136 -2.84087,4.77267 -4.31813,6.13629 -1.47725,1.36362 -2.95451,2.2727 -3.52268,2.15906 -0.22727,0 -0.79545,0.22727 -1.47726,0.68181 -1.02271,0.56818 -2.95451,1.36362 -5.34084,2.04543 -0.68181,0.11364 -1.70453,0.34091 -2.2727,0.34091 -1.02272,0 -1.02272,0 -1.36362,-0.68181 l -0.34091,-0.68181 1.24999,-1.70453 c 4.31813,-6.47719 9.31807,-12.61348 13.18166,-16.2498 0.79544,-0.68181 1.36362,-1.24999 1.24998,-1.24999 -0.22727,0 -1.93179,1.36362 -3.18178,2.49997 -1.81816,1.70453 -1.81816,1.47726 -0.11363,-0.22727 2.38633,-2.38633 3.06814,-2.95451 3.63632,-2.95451 0.3409,0 0.56817,0 0.45454,0.11364 0,0.11363 0,0.22727 0.11363,0.22727 0.11364,0 0.22727,-0.11364 0.22727,-0.22727 0,0 0.79545,-0.45454 1.81816,-0.90908 1.70453,-0.68181 1.9318,-0.79545 2.2727,-0.56818 0.22727,0.22727 0.34091,0.22727 0.45454,0 0.34091,-0.56817 0.34091,0.34091 0.22727,2.2727 z m -13.06802,20.90884 c -0.11364,0 -0.11364,0.11364 -0.22727,0.22727 0,0.11364 0,0.11364 0.11363,0.11364 0.11364,0 0.22727,0 0.22727,-0.11364 0,-0.11363 -0.11363,-0.22727 -0.11363,-0.22727 z m -5.56812,-11.7044 c 1.59089,-2.04543 1.81816,-2.38634 3.63632,-4.5454 0.56818,-0.68181 1.13635,-1.36362 1.24999,-1.70453 0.56817,-0.79544 0.11363,-0.79544 -0.45454,0 -0.22727,0.45454 -0.79545,1.02272 -1.13635,1.36362 -0.34091,0.34091 -0.68181,0.90908 -0.79545,1.13635 0,0.22727 -0.3409,0.56818 -0.56817,0.79545 -0.22727,0.3409 -0.68181,0.90908 -1.13635,1.47725 -0.45454,0.45454 -1.13635,1.24999 -1.59089,1.70453 -0.45454,0.45454 -0.79545,0.90908 -0.68181,1.02271 0,0.11364 -0.11364,0.34091 -0.45454,0.56818 -0.45454,0.3409 -0.45454,0.3409 -0.11364,0.3409 0.22727,0 0.90908,-0.68181 2.04543,-2.15906 z m -2.49997,2.72724 c -0.11363,0.11363 -0.22727,0.3409 -0.22727,0.45454 0,0.11363 0.11364,0.11363 0.22727,0 0.22727,-0.22727 0.34091,-0.34091 0.34091,-0.45454 0,-0.11364 -0.11364,-0.11364 -0.34091,0 z m -3.18178,3.97722 c 0.11364,0.11364 0.11364,0.22727 0.22727,0.22727 0,0 0,-0.11363 0,-0.22727 0,-0.11363 0,-0.11363 -0.11363,-0.11363 -0.11364,0 -0.22727,0 -0.11364,0.11363 z m -0.68181,0.56818 c 0,0.11363 0,0.22727 0.11364,0.22727 0,0 0.11363,-0.11364 0.22727,-0.22727 0,0 0,-0.11364 -0.11364,-0.11364 -0.11363,0 -0.22727,0.11364 -0.22727,0.11364 z m 4.77267,-7.95445 c 0,-0.11364 -0.11363,-0.11364 -0.22727,-0.11364 -0.11363,0.11364 -0.11363,0.22727 -0.11363,0.34091 0,0.11363 0,0.11363 0.11363,0.11363 0.11364,-0.11363 0.22727,-0.22727 0.22727,-0.3409 z m 65.56741,2.04543 c -0.11364,-0.11364 -0.22727,-0.45454 -0.34091,-0.90908 -0.22727,-0.56818 -0.22727,-0.68181 -0.79544,-0.56818 -0.34091,0 -0.56818,0 -0.56818,-0.11363 0,-0.79545 -1.47725,0.3409 -4.99994,3.74995 -3.74995,3.74996 -6.70446,6.13629 -7.84081,6.13629 -0.22727,0 -0.34091,-0.22727 -0.34091,-0.90908 0,-2.49997 0.90908,-5.45448 2.84088,-8.86353 l 1.24998,-2.2727 -0.22727,-1.02271 c -0.11363,-0.56818 -0.11363,-1.13635 0,-1.13635 0.22727,-0.22727 0.11364,-0.68181 -0.22727,-1.02272 -0.22727,-0.3409 -0.22727,-0.3409 0,-0.3409 0.45454,-0.11364 0.45454,-0.45454 0,-0.45454 -0.11363,0 -0.68181,-0.45454 -1.13635,-0.90908 -0.79544,-0.68181 -2.15906,-1.59089 -2.72724,-1.59089 -0.11363,0 -0.3409,0.11363 -0.45454,0.3409 -0.22727,0.22727 -0.56817,0.45454 -0.68181,0.56818 -0.22727,0.11363 -0.45454,0.45454 -0.56817,0.79544 -0.22727,0.45454 -0.56818,1.13635 -0.90908,1.59089 -0.22727,0.45454 -0.79545,1.47726 -1.13635,2.15907 -0.34091,0.68181 -0.79545,1.36362 -0.90908,1.47725 -0.22727,0.22727 -0.79545,0.90908 -1.24999,1.59089 -0.56817,0.79545 -1.13635,1.59089 -1.36362,1.81816 l -0.22727,0.45454 -0.11363,-0.45454 c 0,-0.45454 0,-0.45454 -0.56818,0.34091 -3.06814,4.31813 -6.59083,7.49991 -9.0908,8.40899 -0.79544,0.3409 -0.90908,0.22727 -0.90908,-0.56818 0,-1.70452 2.72724,-7.38627 4.88631,-10.22715 0.45454,-0.56817 1.02271,-1.36362 1.13635,-1.70452 0.45454,-0.79545 4.99994,-5.90902 5.90902,-6.59083 1.36362,-0.90908 3.29541,-2.15907 3.86359,-2.2727 0.90908,-0.34091 3.40905,-0.79545 4.5454,-0.90908 1.13635,-0.11364 1.13635,-0.11364 1.47725,-0.90908 l 0.45454,-0.90908 -0.56817,-0.56818 c -0.45454,-0.45454 -0.90908,-0.68181 -1.47726,-0.79544 -0.45454,-0.11364 -0.90908,-0.22727 -1.02271,-0.22727 -0.22727,0 -0.68181,-0.11364 -1.13635,-0.22727 -0.68181,-0.22727 -0.90908,-0.22727 -0.90908,0 -0.11364,0.22727 -0.45454,0.22727 -0.45454,-0.11364 0,-0.11363 -0.22727,-0.3409 -0.45454,-0.45454 -0.34091,-0.22727 -0.34091,-0.22727 -0.56818,0 -0.11363,0.22727 -0.11363,0.22727 -0.11363,0 0,-0.56817 -3.52269,0.11364 -5.45448,0.90908 -1.47726,0.68181 -3.74996,2.49997 -5.79539,4.43177 -0.90908,0.79544 -1.81816,1.47725 -2.15906,1.59089 -0.68181,0.11363 -1.70453,1.13635 -1.59089,1.59089 0.11363,0.11363 -0.34091,1.02271 -1.13635,2.04543 -0.68181,1.02271 -1.70453,2.49997 -2.04543,3.18178 -0.45454,0.79544 -1.02272,1.81816 -1.47726,2.49997 -0.68181,1.02271 -0.79544,1.24998 -0.90908,2.95451 -0.11363,1.02271 -0.22727,2.04543 -0.3409,2.38633 -0.22727,0.56818 -0.56818,4.09086 -0.45454,4.09086 0.11363,0 0.3409,0.56818 0.45454,1.36362 0.45454,1.59089 1.13635,2.84088 2.2727,3.86359 0.68181,0.56818 0.90908,0.68181 1.70452,0.68181 0.56818,0 1.13635,-0.11363 1.36362,-0.22727 0.22727,-0.22727 0.45454,-0.22727 0.79545,0 0.45454,0.22727 1.47725,0.11364 1.47725,-0.22727 0,0 0.22727,0 0.45454,0 1.59089,0.34091 8.29536,-5.68175 8.52263,-7.61354 0.11363,-0.34091 0.3409,-0.79545 0.79544,-1.24999 l 0.56818,-0.68181 0.22727,1.13635 c 0.22727,2.38634 0.68181,3.97723 1.24998,4.99994 0.79545,1.47726 1.70453,2.61361 2.49997,3.06815 0.68181,0.45454 0.79545,0.45454 1.70453,0.22727 0.79544,-0.11364 1.24998,-0.11364 1.59089,0 0.56817,0.22727 0.68181,0.22727 0.79544,-0.11364 0.22727,-0.3409 0.22727,-0.3409 0.45454,0 0.22727,0.34091 0.34091,0.22727 1.24999,-0.22727 0.56817,-0.22727 1.47725,-0.79544 1.93179,-1.13635 1.36362,-0.90908 4.09086,-3.63632 5.11358,-5.11357 0.45454,-0.68181 1.13635,-1.59089 1.36362,-2.04543 0.68181,-0.79545 2.6136,-4.65904 2.49997,-4.77267 z m -31.24963,-10.45442 c 0.11364,0 0.11364,0.22727 -0.22727,0.56817 -0.45454,0.45454 -0.68181,0.56818 -0.68181,0.22727 0,-0.22727 0.56818,-0.79544 0.90908,-0.79544 z m 33.8632,4.09086 c 0,0.22727 0.22727,0.11363 0.45454,-0.34091 0.11364,-0.3409 0.11364,-0.3409 -0.11363,-0.11363 -0.22727,0.11363 -0.34091,0.3409 -0.34091,0.45454 z m -4.31813,11.13623 c -0.11363,0 -0.22727,0.22727 -0.22727,0.3409 0,0.34091 0,0.34091 0.22727,0.11364 0.22727,-0.45454 0.22727,-0.68181 0,-0.45454 z m 23.29518,-17.61343 c 0,0.11364 0.11363,0.11364 0.22727,0.11364 0.11363,-0.11364 0.22727,-0.22727 0.22727,-0.34091 0,-0.11363 -0.11364,-0.11363 -0.22727,-0.11363 -0.11364,0.11363 -0.22727,0.22727 -0.22727,0.3409 z m -0.56818,0.45454 c 0,0.11364 0.11364,0.22727 0.22727,0.22727 0.11364,-0.11363 0.22727,-0.22727 0.22727,-0.3409 0,-0.11364 -0.11363,-0.22727 -0.22727,-0.22727 -0.11363,0 -0.22727,0.22727 -0.22727,0.3409 z m 19.99976,19.77249 c -0.11363,-0.3409 -0.22727,-0.45454 -0.79544,-0.45454 -0.56818,0.11364 -1.13635,0.56818 -4.65904,4.09086 -3.86359,3.86359 -4.09086,4.09086 -5.79538,4.88631 -1.9318,0.90908 -3.29542,1.36362 -3.86359,1.24998 -0.45454,-0.22727 -2.04543,-2.49997 -3.06815,-4.5454 -1.47725,-2.95451 -3.63632,-9.99988 -4.31813,-14.43164 -0.22727,-0.90908 -0.56817,-2.04543 -0.79544,-2.61361 l -0.45454,-1.02271 1.24998,-1.24999 c 3.74996,-3.52268 10.11352,-7.72718 11.3635,-7.38627 0.56818,0.11363 0.68181,-0.11364 0.22727,-0.45454 -0.11363,-0.22727 0,-0.22727 0.22727,0 0.56818,0.45454 0.68181,0.45454 0.56818,-0.11364 -0.22727,-0.3409 -0.11364,-0.3409 0.11363,-0.11363 0.22727,0.22727 0.45454,0.22727 0.56818,0 0.11363,-0.11364 0.11363,-0.22727 -0.11364,-0.34091 -0.22727,0 -0.68181,-0.45454 -1.24998,-1.02271 -0.45454,-0.45454 -0.68181,-0.68181 -0.56818,-0.45454 0.34091,0.45454 0.45454,0.68181 0.22727,0.68181 -0.11363,0 -0.3409,-0.34091 -0.56817,-0.68181 -0.34091,-0.56818 -0.56818,-0.68181 -0.79545,-0.56818 -0.22727,0.11364 -0.45454,0 -0.45454,0 0,-0.11363 -0.22727,-0.3409 -0.56817,-0.45454 -1.02272,-0.45454 -1.13635,0 -0.45454,2.04543 0.11363,0.22727 -0.22727,0.45454 -1.02272,0.79545 -1.81816,0.90908 -5.45448,3.06814 -5.90902,3.63632 -0.22727,0.22727 -2.04543,1.70452 -2.15906,1.70452 -0.11364,0 -0.11364,-0.11363 0,-0.3409 0,-0.22727 0,-0.22727 -0.11364,-0.22727 -0.22727,0.11363 -0.3409,0.3409 -0.3409,0.56817 0,0.22727 -0.22727,0.68181 -0.79545,1.02272 -0.45454,0.45454 -0.79544,0.56817 -0.79544,0.45454 0,-0.11364 0.11363,-0.11364 0.22727,-0.11364 0.11363,0 0.22727,-0.22727 0.3409,-0.45454 0.22727,-0.3409 0.22727,-0.3409 -0.11363,-0.22727 -1.13635,0.56818 -0.79545,0 0.79544,-1.59089 1.02272,-1.02271 2.15907,-2.15906 2.61361,-2.72724 0.56817,-0.68181 0.90908,-0.90908 1.36362,-1.02271 0.3409,-0.11364 0.79544,-0.22727 0.79544,-0.34091 0.11364,-0.22727 0.34091,-0.3409 0.56818,-0.45454 0.22727,0 0,0.22727 -0.34091,0.56818 -0.45454,0.3409 -0.90908,0.68181 -0.90908,0.68181 -0.11363,0 -0.22727,0.11363 -0.22727,0.22727 0,0.22727 2.84088,-1.59089 2.84088,-1.9318 0.11363,-0.11363 0.22727,-0.22727 0.45454,-0.22727 0.3409,0 1.59089,-1.13635 1.47725,-1.24998 -0.11363,-0.11364 -0.22727,0 -0.45454,0.11363 -0.11363,0.11364 -0.22727,0.22727 -0.22727,0.11364 0,-0.11364 -0.22727,0 -0.56817,0.11363 -0.22727,0.22727 -0.56818,0.34091 -0.68181,0.34091 -0.22727,0 -0.68181,0.22727 -1.02272,0.45454 -0.45454,0.22727 -0.90908,0.56817 -1.24998,0.68181 -0.34091,0.11363 -1.59089,1.13635 -2.84088,2.15906 -0.22727,0.22727 -0.68181,0.56818 -1.13635,0.79545 -0.68181,0.45454 -1.59089,1.24998 -2.72724,2.38633 -0.79544,0.68181 -1.47725,1.13635 -2.38633,1.24999 -1.13635,0.11363 -2.61361,0.79544 -2.72724,1.24998 0,0.11364 0,0.56818 0,1.02272 0,0.68181 0,0.79544 -2.38634,3.29541 -1.36362,1.36362 -2.72724,2.95451 -3.29541,3.52269 -0.45454,0.56817 -0.79545,1.02271 -0.79545,1.02271 -0.11363,-0.11363 1.02272,-2.95451 2.49997,-6.24992 0.79545,-1.81816 2.15907,-4.65904 2.95451,-6.4772 2.49997,-5.56811 14.88619,-29.886 17.04525,-33.63596 0.68181,-1.02271 1.47726,-2.72724 2.04543,-3.74995 1.13635,-2.61361 1.24999,-3.40905 0.22727,-5.45448 -0.68181,-1.36362 -0.79544,-1.47726 -1.47725,-1.59089 -0.56818,-0.11364 -0.79545,-0.22727 -0.90908,-0.45454 0,-0.11364 -0.34091,-0.56818 -0.79545,-0.90908 -0.56817,-0.45454 -0.79544,-0.56818 -1.47725,-0.45454 -1.02272,0.11363 -1.13635,0.3409 -1.24999,1.59089 -0.11363,1.36362 -0.45454,2.04543 -2.95451,7.38627 -1.13635,2.38634 -2.38633,5.11358 -2.84087,6.24993 -0.45454,1.02271 -2.61361,5.56811 -4.88631,10.11351 -2.2727,4.5454 -4.65903,9.31807 -5.34084,10.68169 -0.56818,1.36362 -1.9318,4.09086 -2.84088,6.13629 -1.02271,2.15907 -2.49997,5.34085 -3.29541,7.15901 -0.68181,1.70452 -1.59089,3.52268 -1.70453,3.86359 -0.22727,0.3409 -0.45454,0.79544 -0.45454,0.90908 0,0.45454 -1.24998,3.52268 -2.2727,5.68175 -0.56817,1.02271 -1.02271,2.15906 -1.02271,2.49997 0.11363,0.68181 -2.61361,7.84081 -3.18178,8.74989 -0.34091,0.34091 -0.79545,1.36362 -1.13635,2.2727 -0.34091,0.90908 -0.79545,1.9318 -1.02272,2.38634 -0.45454,0.56817 -0.45454,0.79544 -0.45454,1.47725 0.22727,1.70453 0.56818,2.72724 0.79545,2.95451 0.22727,0.11364 0.3409,0.34091 0.3409,0.45454 0,0.22727 0.79545,0.90908 1.47726,1.24999 0.3409,0.11363 0.79544,0.22727 1.02271,0.11363 0.34091,0 1.13635,-0.11363 1.70453,-0.11363 1.02271,-0.11364 1.24998,-0.22727 1.81816,-0.90908 0.3409,-0.45454 0.79544,-0.79545 1.02271,-0.79545 0.34091,-0.11363 0.56818,-0.68181 1.59089,-2.6136 1.02272,-1.9318 3.06815,-5.11358 5.34085,-8.40899 1.13635,-1.59089 3.06814,-4.43177 4.43176,-6.36356 2.84088,-4.2045 3.18178,-4.5454 3.40905,-4.31813 0.11364,0.11363 0.34091,0.68181 0.56818,1.36362 0.90908,3.74995 2.95451,9.20443 4.31813,11.59077 1.24998,2.49997 2.2727,3.63632 4.99994,6.02265 1.59089,1.36362 2.15906,1.59089 3.86359,1.59089 0.68181,0 1.59089,0.11364 1.93179,0.22727 0.56818,0.11364 0.90908,0.11364 1.47726,-0.22727 0.45454,-0.22727 0.79544,-0.3409 0.90908,-0.3409 0.11363,0 0.3409,-0.11364 0.45454,-0.22727 0.11363,-0.22727 0.45454,-0.34091 0.68181,-0.34091 0.68181,0 2.2727,-1.47725 4.99994,-4.77267 0.56817,-0.68181 1.36362,-1.47725 1.70452,-1.93179 0.34091,-0.34091 0.56818,-0.68181 0.56818,-0.79545 0,0 0.22727,-0.3409 0.45454,-0.68181 0.68181,-0.79544 2.04543,-3.18178 2.2727,-4.09086 0.11363,-0.3409 0.11363,-0.90908 0.11363,-1.13635 z m -12.38621,-22.38609 c 0.11363,0 0.22727,0.11363 0.3409,0.22727 0.11364,0.11363 0,0.22727 -0.11363,0.22727 -0.11364,0 -0.22727,-0.11364 -0.22727,-0.22727 -0.11364,-0.11364 -0.11364,-0.22727 0,-0.22727 z m -16.70435,-9.0908 c -0.11363,0 -0.22727,-0.11364 -0.22727,-0.22727 0,-0.11364 0.11364,-0.11364 0.22727,-0.11364 0.11364,0.11364 0.22727,0.22727 0.22727,0.22727 0,0.11364 -0.11363,0.11364 -0.22727,0.11364 z m 0.90908,-1.9318 c -0.22727,0.34091 -0.3409,0.34091 -0.3409,0.22727 0,-0.3409 0.3409,-0.90908 0.45454,-0.79544 0.11363,0.11363 0,0.3409 -0.11364,0.56817 z m -8.52262,11.0226 c 0.11363,0 0.22727,0.11363 0.11363,0.22727 -0.11363,0.11363 -0.11363,0.22727 -0.22727,0.22727 0,0 -0.11363,-0.11364 -0.11363,-0.22727 0,-0.11364 0.11363,-0.22727 0.22727,-0.22727 z m -3.63632,7.95445 c 0,-0.22727 0.11363,-0.34091 0.11363,-0.34091 0.11364,0 0.11364,0.11364 0.11364,0.34091 0,0.11363 -0.11364,0.22727 -0.22727,0.22727 -0.11364,0 -0.11364,-0.11364 0,-0.22727 z m -1.36362,2.84087 c 0,-0.11363 0.11363,-0.22727 0.22727,-0.22727 0,0.11364 0,0.22727 -0.11364,0.34091 -0.22727,0.22727 -0.22727,0.22727 -0.11363,-0.11364 z m -0.11364,2.61361 c 0.45454,-1.02272 0.68181,-1.36362 1.02272,-1.47726 0.3409,-0.11363 0.68181,-0.22727 0.79544,-0.3409 0.45454,-0.22727 0.34091,0.22727 -0.22727,1.02271 -0.22727,0.45454 -0.45454,1.13635 -0.68181,1.59089 -0.22727,0.68181 -0.3409,0.90908 -0.56817,0.68181 -0.22727,-0.11363 -0.22727,-0.45454 0,-0.3409 0.11363,0.11363 0.22727,-0.11364 0.3409,-0.34091 0.34091,-0.56817 0.34091,-0.56817 0,-0.56817 -0.22727,0 -0.45454,0.22727 -0.68181,0.56817 -0.68181,1.02272 -0.68181,0.68181 0,-0.79544 z m -0.90908,2.2727 c 0.22727,-0.22727 0.34091,-0.22727 0.34091,0 0,0.11363 -0.11364,0.3409 -0.34091,0.56817 -0.22727,0.11364 -0.22727,0.11364 -0.22727,-0.11363 0,-0.11364 0.11364,-0.34091 0.22727,-0.45454 z m -1.81816,3.18178 c 0,0.11363 -0.11363,0.45454 -0.3409,1.02271 -0.22727,0.45454 -0.34091,0.68181 -0.34091,0.56818 0,-0.34091 0.56818,-1.59089 0.68181,-1.59089 z m -1.13635,2.84087 c 0,-0.22727 0.22727,-0.56817 0.22727,-0.79544 0.11364,-0.11364 0.22727,-0.11364 0.11364,0.22727 -0.11364,0.22727 -0.22727,0.56817 -0.34091,0.79544 -0.11363,0.22727 -0.11363,0.11364 0,-0.22727 z m -0.45454,1.13635 0.34091,-0.45454 -0.11364,0.45454 c -0.11363,0.22727 -0.22727,0.56818 -0.3409,0.79545 -0.11364,0.22727 -0.11364,0.22727 -0.11364,0 0,-0.22727 0.11364,-0.56818 0.22727,-0.79545 z m -0.68181,1.81816 c 0.11364,0 0.11364,0.11364 0.11364,0.34091 -0.11364,0.3409 -0.22727,0.45454 -0.22727,0.11363 0,-0.22727 0,-0.3409 0.11363,-0.45454 z m -0.45454,1.36362 c 0.22727,-0.3409 0.34091,-0.3409 0.11364,0.22727 -0.22727,0.68181 -0.34091,0.79545 -0.34091,0.34091 0,-0.11364 0.11364,-0.45454 0.22727,-0.56818 z m -0.68181,1.70453 c 0.11364,-0.11364 0.22727,0 0.22727,0.11363 0,0 -0.11363,0.22727 -0.22727,0.22727 -0.11363,0.11364 -0.11363,0 -0.11363,0 0,-0.11363 0,-0.3409 0.11363,-0.3409 z m 8.86353,-13.86347 c -0.11363,0.3409 -0.3409,0.90908 -0.3409,1.24998 -0.11364,0.45454 -0.45454,1.36362 -0.79545,2.15907 -0.3409,0.68181 -0.68181,1.47725 -0.79544,1.81816 0,0.22727 -0.11364,0.56817 -0.22727,0.68181 -0.11364,0.11363 -0.45454,0.90908 -0.68181,1.81816 -0.56818,1.59089 -1.59089,3.97722 -2.15907,4.5454 -0.22727,0.22727 -0.45454,0.68181 -0.68181,1.02271 -0.22727,0.56818 -1.02271,1.36362 -1.02271,1.13635 0,-0.11363 0.11363,-0.3409 0.22727,-0.68181 0.3409,-0.68181 0.79544,-1.93179 0.68181,-2.04543 -0.11364,0 -0.45454,0.90908 -0.90908,2.04543 -0.68181,1.9318 -2.15907,4.65904 -3.06815,6.13629 -0.3409,0.45454 -0.79544,0.68181 -0.79544,0.34091 0,-0.11364 2.95451,-8.06809 4.8863,-13.18166 0.68181,-1.81816 1.36362,-3.40905 1.36362,-3.63632 0.11364,-0.22727 0.22727,-0.34091 0.34091,-0.22727 0.22727,0 0.3409,0 0.3409,-0.11364 0,-0.11363 0.11364,-0.11363 0.22727,0 0.11364,0 0.34091,-0.22727 0.45454,-0.45454 0.22727,-0.3409 0.34091,-0.45454 0.56818,-0.22727 0.11363,0.11364 0.22727,0 0.3409,-0.3409 0,-0.22727 0.34091,-0.56818 0.56818,-0.79545 0.3409,-0.22727 0.68181,-0.79544 0.90908,-1.36362 0.22727,-0.45454 0.56817,-1.24998 0.79544,-1.59089 0.45454,-0.79544 0.45454,-1.24998 0,-0.68181 -0.22727,0.34091 -0.3409,0.34091 -0.3409,0.11364 0,-0.22727 0.11363,-0.68181 0.3409,-1.02272 0.34091,-0.79544 0.34091,-1.02271 0.11364,-0.68181 -0.22727,0.34091 -0.56818,0.11364 -0.56818,-0.22727 0,-0.11363 -0.11363,-0.3409 -0.3409,-0.3409 -0.22727,-0.11364 -0.22727,0 -0.22727,0.3409 0,0.22727 -0.11364,0.56818 -0.34091,0.68181 -0.3409,0.22727 -0.3409,0.22727 0.22727,-1.24998 1.02272,-2.84088 4.5454,-10.45442 8.7499,-18.74978 2.72724,-5.68175 3.63632,-7.38627 3.63632,-6.70446 0,0.22727 -0.11364,0.79544 -0.34091,1.24998 -0.22727,0.34091 -0.3409,0.79545 -0.3409,0.79545 0.11363,0.11363 0.56817,-0.68181 1.02271,-1.59089 0.79545,-1.70453 1.59089,-2.72724 1.36362,-1.70453 -0.11363,0.22727 -0.56817,1.24999 -1.13635,2.2727 -0.45454,1.02272 -0.90908,1.9318 -0.90908,2.04543 0,0.22727 -0.90908,2.15907 -2.04543,4.31813 -2.2727,4.77267 -2.38633,4.88631 -2.15906,4.77267 0.11363,-0.11363 0.79544,-1.24998 1.36362,-2.49997 0.68181,-1.36362 1.24998,-2.2727 1.24998,-2.15906 0.11364,0.22727 -0.3409,1.24998 -0.45454,1.24998 -0.11363,0 -0.22727,0.34091 -0.3409,0.56818 0,0.3409 -0.34091,1.24998 -0.68181,2.04543 -0.34091,0.68181 -0.68181,1.59089 -0.79545,1.93179 0,0.34091 -0.3409,0.90908 -0.56817,1.36362 -0.22727,0.34091 -0.45454,0.90908 -0.56818,1.13635 -0.11363,0.22727 -0.3409,0.68181 -0.56817,0.90908 -0.34091,0.34091 -0.45454,0.68181 -0.11364,1.02272 0.22727,0.22727 0.22727,0.22727 -0.11363,0.11363 -0.45454,-0.11363 -0.79545,0.68181 -0.45454,1.24999 0.11363,0.45454 0.11363,0.56817 -0.22727,0.90908 -0.22727,0.22727 -0.45454,0.56817 -0.56818,0.79544 -0.11363,0.22727 -0.3409,0.68181 -0.56817,1.02272 -0.34091,0.3409 -0.34091,0.56817 -0.22727,0.56817 0.22727,0.11364 0.22727,0.22727 0,0.34091 -0.11364,0.22727 -0.11364,0.3409 -0.11364,0.3409 0.22727,0 -0.68181,1.59089 -0.90908,1.59089 -0.11363,0.11364 -0.22727,0.22727 -0.11363,0.45454 0,0.11364 -0.34091,1.02272 -0.68181,1.9318 -0.45454,0.90908 -0.90908,1.93179 -1.02272,2.15906 -0.22727,0.34091 -0.3409,0.79545 -0.45454,1.02272 z m 0.22727,-4.99994 c -0.3409,-0.34091 -0.56817,-0.22727 -0.45454,0.11363 0.11364,0.11364 0.34091,0.22727 0.45454,0.22727 0.34091,0 0.34091,-0.11363 0,-0.3409 z m -4.43176,12.49985 c -0.11364,0.11363 -0.22727,0.45454 -0.34091,0.68181 l -0.11363,0.56817 0.3409,-0.56817 c 0.11364,-0.22727 0.22727,-0.56818 0.22727,-0.68181 0,-0.22727 0,-0.22727 -0.11363,0 z m 8.74989,-20.34067 0.11364,-0.56817 -0.22727,0.56817 c -0.22727,0.22727 -0.34091,0.56818 -0.34091,0.56818 0,0.3409 0.34091,-0.11364 0.45454,-0.56818 z m 0.56818,-1.02271 c 0.11363,-0.22727 0.11363,-0.34091 0.11363,-0.34091 -0.11363,0 -0.22727,0.11364 -0.3409,0.34091 -0.11364,0.22727 -0.22727,0.45454 -0.11364,0.45454 0,0 0.22727,-0.22727 0.34091,-0.45454 z m 1.02271,-2.49997 c 0.11364,0 0.68181,-1.02272 0.68181,-1.36362 0,-0.11364 -0.22727,0.11363 -0.45454,0.56817 -0.22727,0.34091 -0.3409,0.68181 -0.3409,0.79545 z m -11.93167,27.72694 c 0,0.3409 0.3409,-0.11364 0.45454,-0.68181 l 0.11363,-0.45454 -0.22727,0.45454 c -0.22727,0.3409 -0.3409,0.56817 -0.3409,0.68181 z m 1.02271,-2.38634 c -0.11363,0.22727 -0.22727,0.34091 -0.22727,0.45454 0,0.11364 0.11364,0.11364 0.22727,0 0,-0.22727 0.11364,-0.45454 0.11364,-0.56817 0,-0.11364 -0.11364,0 -0.11364,0.11363 z"
     id="text2"
     style="font-size:113.635px;line-height:1;font-family:Ahmedy;-inkscape-font-specification:Ahmedy;text-align:center;text-anchor:middle;stroke-width:42.9485;stroke-linecap:round;paint-order:stroke fill markers;fill:#9200c1;fill-opacity:1"
     transform="rotate(-11.421813)"
     aria-label="kapak" />
  <circle
     style="opacity:0.5;fill:#b3b3b3;stroke-width:131.173;stroke-linecap:round;paint-order:stroke fill markers;fill-opacity:1"
     id="path6"
     cx="310.49811"
     cy="192.18065"
     r="23.333958" />
  <circle
     style="opacity:0.5;fill:#b3b3b3;stroke-width:109.647;stroke-linecap:round;paint-order:stroke fill markers;fill-opacity:1"
     id="circle6"
     cx="310.49811"
     cy="192.18065"
     r="19.504683" />
  <circle
     style="fill:#b3b3b3;stroke-width:88.0778;stroke-linecap:round;paint-order:stroke fill markers;fill-opacity:1"
     id="circle7"
     cx="310.49811"
     cy="192.18065"
     r="15.667906" />
</svg>
